g night_sister_talia_weapon
v 0.006989375 -0.05275351 0.09013227
v 5.111098E-06 -0.07070022 0.08857688
v 5.111098E-06 -0.06165209 0.100676
v 0.006989375 -0.06751468 0.07264917
v -0.006979153 -0.05275351 0.09013227
v 5.111098E-06 -0.07816307 0.08945926
v -0.006979153 -0.06751468 0.07264917
v 5.111098E-06 -0.06165209 0.100676
v 5.111098E-06 -0.07070022 0.08857688
v 0.006989375 -0.08739067 0.07575993
v 5.111098E-06 -0.08655316 0.1794172
v -0.006979153 -0.08739067 0.07575993
v 5.111098E-06 -0.07816307 0.08945926
v 0.006989375 -0.0980241 0.1800603
v 5.111098E-06 -0.03314672 0.2770324
v 0.001545548 -0.03480679 0.2966242
v -0.006979153 -0.0980241 0.1800603
v 5.111098E-06 -0.08655316 0.1794172
v -0.001550257 -0.03480679 0.2966242
v 5.111098E-06 -0.03314672 0.2770324
v -0.008130729 0.01794159 0.7548338
v 5.111098E-06 0.03877474 0.7569724
v 5.111098E-06 0.02441737 0.838944
v 5.111098E-06 -0.002338186 0.7712999
v 5.111098E-06 -0.03743897 0.6264699
v -0.01182476 0.00122124 0.6114096
v 5.111098E-06 0.03988145 0.5963493
v 5.111098E-06 -0.04173123 0.4767045
v -0.009132758 -0.009531826 0.4817446
v 5.111098E-06 0.02265261 0.4867846
v 5.111098E-06 -0.03734924 0.3235443
v -0.006814629 -0.01234348 0.3502699
v 5.111098E-06 0.01264732 0.3769956
v 5.111098E-06 0.01755275 0.2166865
v -0.009805754 -0.006480888 0.2231174
v 5.111098E-06 -0.03130718 0.2328087
v 5.111098E-06 0.04662643 0.177787
v -0.01195936 -0.006136909 0.2021946
v -0.01143591 0.001789555 0.1645663
v 5.111098E-06 0.07421951 0.1260407
v 0.01143119 0.001789555 0.1645663
v 5.111098E-06 0.04662643 0.177787
v 0.01195464 -0.006136909 0.2021946
v 0.00980103 -0.006480888 0.2231174
v 5.111098E-06 0.01755275 0.2166865
v 5.111098E-06 -0.03734924 0.3235443
v 0.006824866 -0.01234348 0.3502699
v 5.111098E-06 0.01264732 0.3769956
v 5.111098E-06 0.02265261 0.4867846
v 0.009142995 -0.009531826 0.4817446
v 5.111098E-06 -0.04173123 0.4767045
v 5.111098E-06 0.03988145 0.5963493
v 0.01183499 0.00122124 0.6114096
v 5.111098E-06 -0.03743897 0.6264699
v 5.111098E-06 0.03877474 0.7569724
v 0.008126006 0.01794159 0.7548338
v 5.111098E-06 -0.002338186 0.7712999
v 5.111098E-06 0.02441737 0.838944
v -0.03237374 -0.004671261 0.1617696
v -0.01143591 0.001789555 0.1645663
v -0.01195936 -0.006136909 0.2021946
v 5.111098E-06 -0.03130718 0.2328087
v -0.03548451 0.04424849 0.1342513
v 5.111098E-06 0.07421951 0.1260407
v 5.111098E-06 -0.04856594 0.2181821
v 0.03238399 -0.004671261 0.1617696
v 0.01195464 -0.006136909 0.2021946
v 0.01143119 0.001789555 0.1645663
v 0.03549475 0.04424849 0.1342513
v 5.111098E-06 -0.05115326 0.1630408
v -0.03283738 0.01369421 0.1066582
v -0.03042953 -0.02182534 0.1081837
v -0.02438746 -0.002398014 0.07251456
v -0.03509566 0.04116763 0.1006161
v 5.111098E-06 0.02621204 0.08407524
v -0.03774281 0.09192693 0.1098886
v 0.0304248 -0.02182534 0.1081837
v 0.03284761 0.01369421 0.1066582
v 0.02438274 -0.002398014 0.07251456
v 0.03509095 0.04116763 0.1006161
v 0.03773808 0.09192693 0.1098886
v 5.111098E-06 0.09433478 0.1099484
v -0.037339 0.08824785 0.09885137
v 0.03733429 0.08824785 0.09885137
v 5.111098E-06 0.0454898 0.0930187
v 5.111098E-06 0.09049119 0.09701183
v 0.01980633 -0.04413908 0.08947422
v 5.111098E-06 -0.0548772 0.1183535
v 5.111098E-06 -0.0641048 0.1335035
v -0.01981105 -0.04413908 0.08947422
v 5.111098E-06 -0.06506196 0.1037269
v 5.111098E-06 -0.02723926 0.0786314
v -0.0108676 -0.05188608 0.08754495
v 5.111098E-06 -0.04413908 0.08947422
v 5.111098E-06 -0.02248338 -0.05634285
v 5.111098E-06 -0.05188608 0.08754495
v 0.01086289 -0.05188608 0.08754495
v 0.01889404 0.001550257 -0.05634285
v -0.01888379 0.001550257 -0.05634285
v 5.111098E-06 -0.009113073 -0.07258463
v 5.111098E-06 0.02556895 -0.05634285
v -0.01010486 0.001550257 -0.07258463
v 0.01010014 0.001550257 -0.07258463
v 5.111098E-06 -0.009113073 -0.1036923
v 5.111098E-06 0.01219864 -0.07258463
v -0.01010486 0.001550257 -0.1036923
v 0.01010014 0.001550257 -0.1036923
v 5.111098E-06 -0.02134676 -0.1291317
v 5.111098E-06 0.01219864 -0.1036923
v -0.02266757 0.001550257 -0.1291317
v 0.02266285 0.001550257 -0.1291317
v 5.111098E-06 -0.01560381 -0.141171
v 5.111098E-06 0.02443233 -0.1291317
v -0.01696949 0.001550257 -0.141171
v 0.01696476 0.001550257 -0.141171
v 5.111098E-06 0.01868938 -0.141171
vt 0.44599 0.03803992
vt 0.4876369 0.08347288
vt 0.5226582 0.04845164
vt 0.4270597 0.07779376
vt 0.3787871 0.03898644
vt 0.4876369 0.1014568
vt 0.3958245 0.07590072
vt 0.3059051 0.04750512
vt 0.3361937 0.08063332
vt 0.4251666 0.09672415
vt 0.4838508 0.2898142
vt 0.3958245 0.09483112
vt 0.3343007 0.09767067
vt 0.4298992 0.2850816
vt 0.4450435 0.5453747
vt 0.3844662 0.584182
vt 0.3664823 0.2831886
vt 0.3125307 0.2869747
vt 0.3683754 0.5832354
vt 0.3134772 0.5425351
vt 0.1904296 0.1336384
vt 0.2500604 0.1289058
vt 0.1989483 0.018163
vt 0.1298524 0.110922
vt 0.04939816 0.3087446
vt 0.160141 0.327675
vt 0.2718304 0.3456589
vt 0.05413076 0.513193
vt 0.1449967 0.5037278
vt 0.2358626 0.4961556
vt 0.08252636 0.7214274
vt 0.1506758 0.6835666
vt 0.2188252 0.6457058
vt 0.2500604 0.8652984
vt 0.1781249 0.8586728
vt 0.1042963 0.8454215
vt 0.3305146 0.917357
vt 0.1809644 0.8870684
vt 0.2065205 0.9381804
vt 0.4090758 0.986453
vt 0.2065205 0.9381804
vt 0.3305146 0.917357
vt 0.1809644 0.8870684
vt 0.1781249 0.8586728
vt 0.2500604 0.8652984
vt 0.08252636 0.7214274
vt 0.1506758 0.6835666
vt 0.2188252 0.6457058
vt 0.2358626 0.4961556
vt 0.1449967 0.5037278
vt 0.05413076 0.513193
vt 0.2718304 0.3456589
vt 0.160141 0.327675
vt 0.04939816 0.3087446
vt 0.2500604 0.1289058
vt 0.1904296 0.1336384
vt 0.1298524 0.110922
vt 0.1989483 0.018163
vt 0.6901922 0.8302772
vt 0.6267754 0.8652984
vt 0.7384648 0.9239827
vt 0.8690845 0.9788808
vt 0.4942625 0.771593
vt 0.3125307 0.7980955
vt 0.9296618 0.9438596
vt 0.6901922 0.8302772
vt 0.7384648 0.9239827
vt 0.6267754 0.8652984
vt 0.4942625 0.771593
vt 0.9306083 0.8312237
vt 0.6050054 0.7110156
vt 0.7592882 0.7129087
vt 0.6693688 0.6192032
vt 0.4904765 0.7081761
vt 0.4715461 0.6229893
vt 0.3778406 0.7403578
vt 0.7592882 0.7129087
vt 0.6050054 0.7110156
vt 0.6693688 0.6192032
vt 0.4904765 0.7081761
vt 0.3778406 0.7403578
vt 0.2699373 0.7441438
vt 0.375001 0.7289996
vt 0.375001 0.7289996
vt 0.3996105 0.6494918
vt 0.2746699 0.7176413
vt 0.8596193 0.6731549
vt 0.9485922 0.7327856
vt 0.9769878 0.7678069
vt 0.8596193 0.6731549
vt 0.9788808 0.6987109
vt 0.8492076 0.6154171
vt 0.9059988 0.6693688
vt 0.915464 0.6428663
vt 0.7999886 0.2879212
vt 0.9400735 0.657064
vt 0.9059988 0.6693688
vt 0.6712618 0.2954934
vt 0.6712618 0.2954934
vt 0.7413043 0.2500604
vt 0.5415886 0.2841351
vt 0.6741014 0.254793
vt 0.6741014 0.254793
vt 0.7403578 0.1809644
vt 0.6050054 0.2472208
vt 0.6750479 0.1800179
vt 0.6750479 0.1800179
vt 0.7820047 0.1251198
vt 0.6135241 0.1790714
vt 0.678834 0.1326919
vt 0.678834 0.1326919
vt 0.751716 0.09956372
vt 0.5785029 0.1222802
vt 0.6797805 0.1166011
vt 0.6797805 0.1166011
vt 0.6097381 0.0986172
vn 0.8431308 0.4039184 -0.3549371
vn -0.003921509 -0.4901924 0.8716055
vn -0.003921509 -0.7803862 0.6252855
vn 0.6313677 0.2941153 -0.7175451
vn -0.8431307 0.4039184 -0.3549374
vn -0.003921509 0.9764631 0.215649
vn -0.6313677 0.2941153 -0.7175452
vn -0.003921509 -0.7803862 0.6252855
vn -0.003921509 -0.4901924 0.8716055
vn 0.4980354 -0.8352877 -0.2329272
vn -0.003921509 0.9843061 -0.176426
vn -0.4980353 -0.8352877 -0.2329274
vn -0.003921509 0.9764631 0.215649
vn 0.7960724 -0.5921524 0.1249976
vn -0.003921509 0.9058753 -0.4235263
vn 0.450977 -0.7803862 0.4331479
vn -0.7960722 -0.5921524 0.1249983
vn -0.003921509 0.9843061 -0.176426
vn -0.4509768 -0.7803862 0.4331481
vn -0.003921509 0.9058753 -0.4235263
vn -0.9999923 -0.003921568 -0.0003442513
vn -0.9450908 0.3254876 0.02934668
vn -0.9921492 0.003921509 0.1249981
vn -0.9529338 -0.2862723 0.09982665
vn -0.9583629 -0.2855531 0
vn -0.9999923 -0.003921568 -0.0003442513
vn -0.9529338 0.2941153 -0.07357585
vn -0.9607769 -0.2705862 -0.06075203
vn -0.9993777 -0.03527219 0
vn -0.9604815 0.2783436 0
vn -0.9529338 -0.3019585 -0.02717127
vn -0.9999923 0.003921509 -0.0003449296
vn -0.9583629 0.285553 0
vn -0.9450908 0.3254876 0.02934668
vn -0.9921492 0.1215676 0.02934652
vn -0.003921509 -0.9843062 0.1764254
vn -0.9686199 0.2392138 0.0674695
vn -0.9294046 0.2705861 0.2509785
vn -0.7568569 0.4980353 0.4232357
vn -0.003921509 0.5294076 0.8483585
vn 0.756857 0.4980353 0.4232356
vn 0.9686201 0.2392138 0.06746773
vn 0.9294047 0.2705861 0.2509782
vn 0.9921493 0.1215676 0.02934449
vn 0.9450908 0.3254876 0.02934465
vn 0.9529339 -0.3019585 -0.02716688
vn 0.9999924 0.003921509 0
vn 0.9583629 0.285553 0
vn 0.9604816 0.2783436 0
vn 0.9993777 -0.03527218 0
vn 0.960777 -0.2705862 -0.06075105
vn 0.9529339 0.2941153 -0.07357423
vn 0.9999924 -0.003921568 0
vn 0.9583629 -0.2855531 0
vn 0.9450908 0.3254876 0.02934465
vn 0.9999924 -0.003921568 0
vn 0.9529339 -0.2862723 0.09982546
vn 0.9921493 0.003921509 0.1249976
vn -0.9372476 -0.2313708 0.2608341
vn -0.7568569 0.4980353 0.4232357
vn -0.9294046 0.2705861 0.2509785
vn -0.003921509 -0.9843062 0.1764254
vn -0.7490138 0.2941153 0.5936957
vn -0.003921509 0.5294076 0.8483585
vn -0.003921509 -0.9137185 0.4063288
vn 0.9372478 -0.2313708 0.2608337
vn 0.9294047 0.2705861 0.2509782
vn 0.756857 0.4980353 0.4232356
vn 0.7490139 0.2941153 0.5936955
vn -0.003921509 -0.9843062 0.1764254
vn -0.9921492 -0.08235234 -0.09411691
vn -0.9372476 -0.3411739 0.07188372
vn -0.9921492 0.02745068 -0.1220097
vn -0.7019553 0.05882299 -0.7097877
vn -0.003921509 0.9529338 -0.3031532
vn -0.8196015 0.4745061 0.3210876
vn 0.9372478 -0.3411739 0.07188205
vn 0.9921493 -0.08235234 -0.09411628
vn 0.9921493 0.02745068 -0.1220092
vn 0.7019554 0.05882299 -0.7097875
vn 0.8196016 0.4745061 0.3210874
vn -0.003921509 0.9529338 0.3031532
vn -0.6313677 0.1764692 -0.755138
vn 0.6313677 0.1764692 -0.755138
vn -0.003921509 0.0901953 -0.9959164
vn -0.003921509 0.262743 -0.9648579
vn 0.8039154 -0.552937 -0.2190449
vn -0.003921509 -0.9921493 -0.1249976
vn -0.003921509 -0.9686201 0.2485151
vn -0.8039154 -0.552937 -0.2190452
vn -0.003921509 -0.9686201 0.2485151
vn -0.003921509 -0.9686201 -0.2485151
vn -0.7646999 -0.6078385 -0.2139308
vn -0.003921509 -0.2627431 -0.9648579
vn -0.003921509 -0.9921493 -0.1249976
vn -0.003921509 -0.2941154 -0.9557618
vn 0.7647001 -0.6078385 -0.2139304
vn 0.9998079 0.01960405 0
vn -0.9998079 0.01960405 0
vn -0.003921509 -0.9372478 -0.3486421
vn -0.003921509 0.9999923 -0.000345267
vn -0.9529338 0.003921509 -0.3031532
vn 0.9529339 0.003921509 -0.3031528
vn -0.003921509 -0.960777 0.2772944
vn -0.003921509 0.9372476 -0.3486424
vn -0.9607769 0.003921509 0.2772946
vn 0.960777 0.003921509 0.2772944
vn -0.003921509 -0.9921493 0.1249976
vn -0.003921509 0.9607769 0.2772946
vn -0.9921492 0.003921509 0.1249981
vn 0.9921493 0.003921509 0.1249976
vn -0.003921509 -0.7097985 -0.7043939
vn -0.003921509 0.9921492 0.1249981
vn -0.7176415 0.003921509 -0.6964017
vn 0.7176416 0.003921509 -0.6964016
vn -0.003921509 0.7097985 -0.7043939
g night_sister_talia_weapon_0
f 3/3/3 2/2/2 1/1/1
f 2/2/2 4/4/4 1/1/1
f 1/1/1 4/4/4 5/5/5
f 2/2/2 6/6/6 4/4/4
f 4/4/4 7/7/7 5/5/5
f 5/5/5 7/7/7 8/8/8
f 7/7/7 9/9/9 8/8/8
f 6/6/6 10/10/10 4/4/4
f 4/4/4 10/10/10 7/7/7
f 6/6/6 11/11/11 10/10/10
f 7/7/7 12/12/12 9/9/9
f 10/10/10 12/12/12 7/7/7
f 12/12/12 13/13/13 9/9/9
f 11/11/11 14/14/14 10/10/10
f 10/10/10 14/14/14 12/12/12
f 11/11/11 15/15/15 14/14/14
f 15/15/15 16/16/16 14/14/14
f 12/12/12 17/17/17 13/13/13
f 14/14/14 17/17/17 12/12/12
f 14/14/14 16/16/16 17/17/17
f 17/17/17 18/18/18 13/13/13
f 16/16/16 19/19/19 17/17/17
f 17/17/17 19/19/19 18/18/18
f 19/19/19 20/20/20 18/18/18
f 23/23/23 22/22/22 21/21/21
f 23/23/23 21/21/21 24/24/24
f 24/24/24 21/21/21 25/25/25
f 21/21/21 22/22/22 26/26/26
f 21/21/21 26/26/26 25/25/25
f 22/22/22 27/27/27 26/26/26
f 25/25/25 26/26/26 28/28/28
f 26/26/26 27/27/27 29/29/29
f 26/26/26 29/29/29 28/28/28
f 27/27/27 30/30/30 29/29/29
f 28/28/28 29/29/29 31/31/31
f 29/29/29 30/30/30 32/32/32
f 29/29/29 32/32/32 31/31/31
f 30/30/30 33/33/33 32/32/32
f 33/33/33 34/34/34 32/32/32
f 32/32/32 35/35/35 31/31/31
f 34/34/34 35/35/35 32/32/32
f 35/35/35 36/36/36 31/31/31
f 35/35/35 34/34/34 37/37/37
f 35/35/35 38/38/38 36/36/36
f 38/38/38 35/35/35 37/37/37
f 39/39/39 38/38/38 37/37/37
f 39/39/39 37/37/37 40/40/40
f 42/42/42 41/41/41 40/40/40
f 43/43/43 41/41/41 42/42/42
f 43/43/43 44/44/44 36/36/36
f 44/44/44 43/43/43 42/42/42
f 45/45/45 44/44/44 42/42/42
f 36/36/36 44/44/44 46/46/46
f 44/44/44 45/45/45 47/47/47
f 44/44/44 47/47/47 46/46/46
f 45/45/45 48/48/48 47/47/47
f 48/48/48 49/49/49 47/47/47
f 47/47/47 50/50/50 46/46/46
f 49/49/49 50/50/50 47/47/47
f 50/50/50 51/51/51 46/46/46
f 49/49/49 52/52/52 50/50/50
f 50/50/50 53/53/53 51/51/51
f 52/52/52 53/53/53 50/50/50
f 53/53/53 54/54/54 51/51/51
f 52/52/52 55/55/55 53/53/53
f 53/53/53 56/56/56 54/54/54
f 55/55/55 56/56/56 53/53/53
f 56/56/56 57/57/57 54/54/54
f 55/55/55 58/58/58 56/56/56
f 56/56/56 58/58/58 57/57/57
f 61/61/61 60/60/60 59/59/59
f 59/59/59 62/62/62 61/61/61
f 63/63/63 59/59/59 60/60/60
f 63/63/63 60/60/60 64/64/64
f 59/59/59 65/65/65 62/62/62
f 65/65/65 66/66/66 62/62/62
f 62/62/62 66/66/66 67/67/67
f 68/68/68 67/67/67 66/66/66
f 68/68/68 69/69/69 64/64/64
f 66/66/66 69/69/69 68/68/68
f 59/59/59 70/70/70 65/65/65
f 70/70/70 66/66/66 65/65/65
f 63/63/63 71/71/71 59/59/59
f 59/59/59 72/72/72 70/70/70
f 72/72/72 59/59/59 71/71/71
f 73/73/73 72/72/72 71/71/71
f 71/71/71 63/63/63 74/74/74
f 74/74/74 73/73/73 71/71/71
f 74/74/74 75/75/75 73/73/73
f 76/76/76 63/63/63 64/64/64
f 63/63/63 76/76/76 74/74/74
f 77/77/77 66/66/66 70/70/70
f 78/78/78 69/69/69 66/66/66
f 66/66/66 77/77/77 78/78/78
f 77/77/77 79/79/79 78/78/78
f 69/69/69 78/78/78 80/80/80
f 79/79/79 80/80/80 78/78/78
f 75/75/75 80/80/80 79/79/79
f 69/69/69 81/81/81 64/64/64
f 81/81/81 69/69/69 80/80/80
f 82/82/82 76/76/76 64/64/64
f 81/81/81 82/82/82 64/64/64
f 76/76/76 83/83/83 74/74/74
f 76/76/76 82/82/82 83/83/83
f 84/84/84 81/81/81 80/80/80
f 82/82/82 81/81/81 84/84/84
f 74/74/74 83/83/83 85/85/85
f 75/75/75 74/74/74 85/85/85
f 84/84/84 80/80/80 85/85/85
f 80/80/80 75/75/75 85/85/85
f 82/82/82 86/86/86 83/83/83
f 86/86/86 82/82/82 84/84/84
f 83/83/83 86/86/86 85/85/85
f 86/86/86 84/84/84 85/85/85
f 87/87/87 79/79/79 77/77/77
f 77/77/77 88/88/88 87/87/87
f 77/77/77 89/89/89 88/88/88
f 70/70/70 89/89/89 77/77/77
f 89/89/89 70/70/70 72/72/72
f 89/89/89 72/72/72 88/88/88
f 88/88/88 72/72/72 90/90/90
f 73/73/73 90/90/90 72/72/72
f 88/88/88 91/91/91 87/87/87
f 91/91/91 88/88/88 90/90/90
f 92/92/92 79/79/79 87/87/87
f 73/73/73 92/92/92 90/90/90
f 93/93/93 91/91/91 90/90/90
f 93/93/93 90/90/90 94/94/94
f 94/94/94 90/90/90 92/92/92
f 87/87/87 94/94/94 92/92/92
f 92/92/92 95/95/95 79/79/79
f 95/95/95 92/92/92 73/73/73
f 91/91/91 93/93/93 96/96/96
f 96/96/96 93/93/93 94/94/94
f 91/91/91 97/97/97 87/87/87
f 87/87/87 97/97/97 94/94/94
f 97/97/97 91/91/91 96/96/96
f 97/97/97 96/96/96 94/94/94
f 95/95/95 98/98/98 79/79/79
f 79/79/79 98/98/98 75/75/75
f 99/99/99 73/73/73 75/75/75
f 99/99/99 95/95/95 73/73/73
f 95/95/95 100/100/100 98/98/98
f 100/100/100 95/95/95 99/99/99
f 101/101/101 99/99/99 75/75/75
f 98/98/98 101/101/101 75/75/75
f 102/102/102 100/100/100 99/99/99
f 102/102/102 99/99/99 101/101/101
f 98/98/98 103/103/103 101/101/101
f 100/100/100 103/103/103 98/98/98
f 104/104/104 100/100/100 102/102/102
f 100/100/100 104/104/104 103/103/103
f 105/105/105 102/102/102 101/101/101
f 103/103/103 105/105/105 101/101/101
f 106/106/106 104/104/104 102/102/102
f 106/106/106 102/102/102 105/105/105
f 103/103/103 107/107/107 105/105/105
f 104/104/104 107/107/107 103/103/103
f 108/108/108 104/104/104 106/106/106
f 104/104/104 108/108/108 107/107/107
f 109/109/109 106/106/106 105/105/105
f 107/107/107 109/109/109 105/105/105
f 110/110/110 108/108/108 106/106/106
f 110/110/110 106/106/106 109/109/109
f 107/107/107 111/111/111 109/109/109
f 108/108/108 111/111/111 107/107/107
f 112/112/112 108/108/108 110/110/110
f 108/108/108 112/112/112 111/111/111
f 113/113/113 110/110/110 109/109/109
f 111/111/111 113/113/113 109/109/109
f 114/114/114 112/112/112 110/110/110
f 114/114/114 110/110/110 113/113/113
f 111/111/111 115/115/115 113/113/113
f 112/112/112 115/115/115 111/111/111
f 116/116/116 112/112/112 114/114/114
f 116/116/116 114/114/114 113/113/113
f 115/115/115 116/116/116 113/113/113
f 112/112/112 116/116/116 115/115/115
