g trooperclone_cody_mesh
v -0.05360815 1.233299 -0.2378562
v -0.03398922 1.233299 -0.1871936
v -0.03398922 1.233299 -0.2378562
v -0.05360815 1.233299 -0.1871936
v -0.0844169 1.278469 -0.2378562
v -0.0844169 1.278469 -0.1871936
v -0.1010401 1.541034 -0.2378562
v -0.1010401 1.541034 -0.1871936
v 0.08442919 1.278469 -0.2378562
v 0.101023 1.541034 -0.1871936
v 0.101023 1.541034 -0.2378562
v 0.08442919 1.278469 -0.1871936
v 0.05359106 1.233299 -0.2378562
v 0.05359106 1.233299 -0.1871936
v 0.03397214 1.233299 -0.1871936
v 0.03397214 1.233299 -0.2378562
v 0.101023 1.541034 -0.2378562
v 0.101023 1.541034 -0.1871936
v 0.04519135 1.586205 -0.1871936
v 0.04519135 1.586205 -0.2378562
v -0.04520842 1.586205 -0.1871936
v -0.04520842 1.586205 -0.2378562
v -0.1010401 1.541034 -0.1871936
v -0.1010401 1.541034 -0.2378562
v -0.0274398 1.248189 -0.2527466
v -0.05360815 1.233299 -0.2378562
v -0.03398922 1.233299 -0.2378562
v -0.04729366 1.248189 -0.2527466
v -0.0844169 1.278469 -0.2378562
v -0.01951 1.284343 -0.2527466
v -0.06935027 1.284343 -0.2527466
v -0.1010401 1.541034 -0.2378562
v -0.08632594 1.534543 -0.2527466
v 0.08630885 1.534543 -0.2527466
v -0.04520842 1.586205 -0.2378562
v 0.01949291 1.284343 -0.2527466
v -0.03915828 1.571285 -0.2527466
v 0.04519135 1.586205 -0.2378562
v 0.03917056 1.571285 -0.2527466
v 0.101023 1.541034 -0.2378562
v 0.08442919 1.278469 -0.2378562
v 0.06936257 1.284343 -0.2527466
v 0.05359106 1.233299 -0.2378562
v 0.04730596 1.248189 -0.2527466
v 0.02742271 1.248189 -0.2527466
v 0.03397214 1.233299 -0.2378562
v -0.0274398 1.248189 -0.1723032
v -0.03398922 1.233299 -0.1871936
v -0.05360815 1.233299 -0.1871936
v -0.04729366 1.248189 -0.1723032
v -0.0844169 1.278469 -0.1871936
v -0.01951 1.284343 -0.1723032
v -0.06935027 1.284343 -0.1723032
v -0.1010401 1.541034 -0.1871936
v -0.08632594 1.534543 -0.1723032
v 0.08630885 1.534543 -0.1723032
v -0.04520842 1.586205 -0.1871936
v 0.01949291 1.284343 -0.1723032
v -0.03915828 1.571285 -0.1723032
v 0.04519135 1.586205 -0.1871936
v 0.03917056 1.571285 -0.1723032
v 0.101023 1.541034 -0.1871936
v 0.08442919 1.278469 -0.1871936
v 0.06936257 1.284343 -0.1723032
v 0.05359106 1.233299 -0.1871936
v 0.04730596 1.248189 -0.1723032
v 0.02742271 1.248189 -0.1723032
v 0.03397214 1.233299 -0.1871936
v 0.02742271 1.248189 -0.1723032
v 0.03397214 1.233299 -0.1871936
v 0.03397214 1.233299 -0.2378562
v 0.02742271 1.248189 -0.2527466
v 0.01949291 1.284343 -0.1723032
v 0.01949291 1.284343 -0.2527466
v -0.01951 1.284343 -0.1723032
v -0.01951 1.284343 -0.2527466
v -0.0274398 1.248189 -0.1723032
v -0.0274398 1.248189 -0.2527466
v -0.03398922 1.233299 -0.2378562
v -0.03398922 1.233299 -0.1871936
v 0.03946427 1.428519 0.1132285
v 0.04251871 1.470341 0.09590045
v 0.1362079 1.456185 0.0783374
v 0.1331241 1.414363 0.09566548
v 0.04251871 1.470341 0.09590045
v 0.03793705 1.462999 0.0773682
v 0.1316262 1.448872 0.05980515
v 0.1362079 1.456185 0.0783374
v 0.03488261 1.421176 0.09469628
v 0.03946427 1.428519 0.1132285
v 0.1331241 1.414363 0.09566548
v 0.1285424 1.40702 0.07713324
v 0.1331241 1.414363 0.09566548
v 0.1362079 1.456185 0.0783374
v 0.1316262 1.448872 0.05980515
v 0.1285424 1.40702 0.07713324
v 0.03488261 1.421176 0.09469628
v 0.03793705 1.462999 0.0773682
v 0.04251871 1.470341 0.09590045
v 0.03946427 1.428519 0.1132285
v 0.1793813 1.605265 -0.02113761
v 0.1816721 1.631375 -0.03505881
v 0.1870174 1.632403 -0.03209248
v 0.1846384 1.60597 -0.01802443
v 0.1902187 1.629084 -0.03573433
v 0.188339 1.601741 -0.02131382
v 0.1848734 1.628115 -0.03870066
v 0.1830231 1.600801 -0.02428016
v 0.1816721 1.631375 -0.03505881
v 0.1793813 1.605265 -0.02113761
v 0.1848734 1.628115 -0.03870066
v 0.1902187 1.629084 -0.03573433
v 0.1870174 1.632403 -0.03209248
v 0.1816721 1.631375 -0.03505881
v 0.1920102 1.603356 -0.02292915
v 0.1979429 1.670965 -0.05899508
v 0.2032882 1.671993 -0.05602874
v 0.1972968 1.604061 -0.01981597
v 0.2065188 1.668674 -0.05964121
v 0.2009973 1.599832 -0.02310537
v 0.2011735 1.667705 -0.06263691
v 0.1956521 1.598892 -0.02607171
v 0.1979429 1.670965 -0.05899508
v 0.1920102 1.603356 -0.02292915
v 0.2011735 1.667705 -0.06263691
v 0.2065188 1.668674 -0.05964121
v 0.2032882 1.671993 -0.05602874
v 0.1979429 1.670965 -0.05899508
v 0.1673985 1.530519 0.01827645
v 0.1990296 1.540946 0.02185956
v 0.1960632 1.526085 0.0152514
v 0.1705116 1.545763 0.0255895
v 0.2056084 1.609201 -0.01943417
v 0.176973 1.613548 -0.01538116
v 0.2023777 1.59804 -0.0326505
v 0.199147 1.573135 -0.02689406
v 0.1960632 1.526085 0.0152514
v 0.1946535 1.553633 -0.04190195
v 0.173801 1.602622 -0.02874434
v 0.176973 1.613548 -0.01538116
v 0.199147 1.573135 -0.02689406
v 0.1706291 1.577746 -0.02298789
v 0.1946535 1.553633 -0.04190195
v 0.1659887 1.558039 -0.03887688
v 0.1706291 1.577746 -0.02298789
v 0.173801 1.602622 -0.02874434
v 0.176973 1.613548 -0.01538116
v 0.1705116 1.545763 0.0255895
v 0.1659887 1.558039 -0.03887688
v 0.1673985 1.530519 0.01827645
vt 0.909523 0.5523799
vt 0.9913483 0.5841473
vt 0.909523 0.5841473
vt 0.9913483 0.5523799
vt 0.909523 0.4638161
vt 0.9913483 0.4638161
vt 0.909523 0.03928754
vt 0.9913483 0.03928754
vt 0.909523 0.4638161
vt 0.9913483 0.03928754
vt 0.909523 0.03928754
vt 0.9913483 0.4638161
vt 0.909523 0.5523799
vt 0.9913483 0.5523799
vt 0.9913483 0.5841473
vt 0.909523 0.5841473
vt 0.9114483 0.9797965
vt 0.9932736 0.9797965
vt 0.9932736 0.8642785
vt 0.9114483 0.8642785
vt 0.9932736 0.7179557
vt 0.9114483 0.7179557
vt 0.9932736 0.6014751
vt 0.9114483 0.6014751
vt 0.3531114 0.1162995
vt 0.4291607 0.07394294
vt 0.3800656 0.06527909
vt 0.4031692 0.1230381
vt 0.508098 0.1952368
vt 0.3261572 0.2096766
vt 0.4551523 0.2125645
vt 0.5437161 0.8642785
vt 0.4926956 0.8440628
vt 0.05950319 0.8440628
vt 0.395468 0.9884603
vt 0.2260416 0.2096766
vt 0.3742897 0.9374399
vt 0.1576935 0.9884603
vt 0.1779091 0.9374399
vt 0.00848275 0.8642785
vt 0.04410079 0.1952368
vt 0.09704653 0.2125645
vt 0.1230381 0.07394294
vt 0.1490296 0.1230381
vt 0.1990874 0.1162995
vt 0.1730959 0.06527909
vt 0.8748676 0.1085983
vt 0.8950832 0.09800918
vt 0.8921953 0.07779354
vt 0.8719797 0.08838268
vt 0.8431002 0.04506344
vt 0.8373243 0.1191875
vt 0.835399 0.06624174
vt 0.568745 0.0306237
vt 0.5783715 0.05083934
vt 0.5783715 0.2289296
vt 0.5206125 0.09030798
vt 0.8373243 0.1605814
vt 0.5417908 0.09993448
vt 0.5206125 0.1884983
vt 0.5417908 0.1798344
vt 0.568745 0.2491452
vt 0.8431002 0.2337428
vt 0.835399 0.2125645
vt 0.8921953 0.2019754
vt 0.8719797 0.1913862
vt 0.8748676 0.1711706
vt 0.8960459 0.1817597
vt 0.6101389 0.8142207
vt 0.5754835 0.8459881
vt 0.5754835 0.9557302
vt 0.6101389 0.9884603
vt 0.6900389 0.8142207
vt 0.6900389 0.9884603
vt 0.7737894 0.8151833
vt 0.7737894 0.9884603
vt 0.8536893 0.8151833
vt 0.8536893 0.9884603
vt 0.8883447 0.9566929
vt 0.8883447 0.8469508
vt 0.6034003 0.6120642
vt 0.6034003 0.7246943
vt 0.8431002 0.7246943
vt 0.8431002 0.6120642
vt 0.6034003 0.7246943
vt 0.6034003 0.7757147
vt 0.8431002 0.7757147
vt 0.8431002 0.7246943
vt 0.6034003 0.5610437
vt 0.6034003 0.6120642
vt 0.8431002 0.6120642
vt 0.8431002 0.5610437
vt 0.8431002 0.6120642
vt 0.8431002 0.7246943
vt 0.8941206 0.7246943
vt 0.8941206 0.6120642
vt 0.5523799 0.6120642
vt 0.5523799 0.7246943
vt 0.6034003 0.7246943
vt 0.6034003 0.6120642
vt 0.7352834 0.4050945
vt 0.6861882 0.4253101
vt 0.6910015 0.4358993
vt 0.7400966 0.4166463
vt 0.6948521 0.4455258
vt 0.7477978 0.4253101
vt 0.7035159 0.4522643
vt 0.7506858 0.4358993
vt 0.6987027 0.4609282
vt 0.7497231 0.4474511
vt 0.7035159 0.4522643
vt 0.6948521 0.4455258
vt 0.6890762 0.4541896
vt 0.6987027 0.4609282
vt 0.7400966 0.2626223
vt 0.7420219 0.4070198
vt 0.7545364 0.4070198
vt 0.7526111 0.2616597
vt 0.7670508 0.4070198
vt 0.7641629 0.2568464
vt 0.7766773 0.4002813
vt 0.7766773 0.257809
vt 0.7843785 0.4079824
vt 0.7882291 0.2626223
vt 0.7766773 0.4002813
vt 0.7670508 0.4070198
vt 0.774752 0.4156836
vt 0.7843785 0.4079824
vt 0.5543052 0.2645476
vt 0.6216907 0.3001657
vt 0.623616 0.2626223
vt 0.5562305 0.3030536
vt 0.623616 0.4821065
vt 0.5581558 0.4821065
vt 0.6630846 0.4753679
vt 0.6804124 0.4204969
vt 0.6524955 0.27995
vt 0.7333581 0.3983559
vt 0.6727111 0.5408281
vt 0.6342052 0.5485293
vt 0.7208436 0.4667041
vt 0.7304701 0.5321643
vt 0.7757147 0.4570776
vt 0.7872665 0.5215751
vt 0.6804124 0.4204969
vt 0.6630846 0.4753679
vt 0.623616 0.4821065
vt 0.6216907 0.3001657
vt 0.7333581 0.3983559
vt 0.6524955 0.27995
vn -0.6487042 -0.7346393 -0.1987156
vn 0.0004625916 -0.9664846 0.2567241
vn 0.0004625916 -0.9664846 -0.2567241
vn -0.6487042 -0.7346393 0.1987156
vn -0.9732876 -0.147298 -0.1761097
vn -0.9732876 -0.147298 0.1761097
vn -0.9732876 0.1231883 -0.193742
vn -0.9732876 0.1231883 0.193742
vn 0.9664846 -0.147298 -0.2102636
vn 0.9742128 0.1231883 0.1890345
vn 0.9742128 0.1231883 -0.1890345
vn 0.9664846 -0.147298 0.2102636
vn 0.6496294 -0.7346393 -0.1956697
vn 0.6496294 -0.7346393 0.1956697
vn 0.0004625916 -0.9664846 0.2567241
vn 0.0004625916 -0.9664846 -0.2567241
vn 0.9742128 0.1231883 -0.1890345
vn 0.9742128 0.1231883 0.1890345
vn 0.2864051 0.9346467 0.2107311
vn 0.2864051 0.9346467 -0.2107311
vn -0.2932081 0.9346467 0.2011579
vn -0.2932081 0.9346467 -0.2011579
vn -0.9732876 0.1231883 0.193742
vn -0.9732876 0.1231883 -0.193742
vn 0.0004625916 -0.1395698 -0.9902121
vn -0.6487042 -0.7346393 -0.1987156
vn 0.0004625916 -0.9664846 -0.2567241
vn -0.246839 -0.2709488 -0.930407
vn -0.9732876 -0.147298 -0.1761097
vn 0.0004625916 -0.0004625916 -0.9999998
vn -0.3704898 -0.05455983 -0.9272327
vn -0.9732876 0.1231883 -0.193742
vn -0.1772854 0.02272189 -0.9838971
vn 0.1704825 0.02272189 -0.9850987
vn -0.2932081 0.9346467 -0.2011579
vn 0.0004625916 -0.0004625916 -0.9999998
vn -0.06909096 0.2313826 -0.9704064
vn 0.2864051 0.9346467 -0.2107311
vn 0.07001621 0.2313826 -0.9703401
vn 0.9742128 0.1231883 -0.1890345
vn 0.9664846 -0.147298 -0.2102636
vn 0.3714151 -0.05455983 -0.9268625
vn 0.6496294 -0.7346393 -0.1956697
vn 0.2477642 -0.2709488 -0.9301611
vn 0.0004625916 -0.1395698 -0.9902121
vn 0.0004625916 -0.9664846 -0.2567241
vn 0.0004625916 -0.1395698 0.9902121
vn 0.0004625916 -0.9664846 0.2567241
vn -0.6487042 -0.7346393 0.1987156
vn -0.246839 -0.2709488 0.930407
vn -0.9732876 -0.147298 0.1761097
vn 0.0004625916 -0.0004625916 0.9999998
vn -0.3704898 -0.05455983 0.9272327
vn -0.9732876 0.1231883 0.193742
vn -0.1772854 0.02272189 0.9838971
vn 0.1704825 0.02272189 0.9850987
vn -0.2932081 0.9346467 0.2011579
vn 0.0004625916 -0.0004625916 0.9999998
vn -0.06909096 0.2313826 0.9704064
vn 0.2864051 0.9346467 0.2107311
vn 0.07001621 0.2313826 0.9703401
vn 0.9742128 0.1231883 0.1890345
vn 0.9664846 -0.147298 0.2102636
vn 0.3714151 -0.05455983 0.9268625
vn 0.6496294 -0.7346393 0.1956697
vn 0.2477642 -0.2709488 0.9301611
vn 0.0004625916 -0.1395698 0.9902121
vn 0.0004625916 -0.9664846 0.2567241
vn -0.9655594 -0.2477642 -0.07942308
vn -0.9160907 -0.4009711 0
vn -0.9160907 -0.4009711 0
vn -0.9655594 -0.2477642 -0.07942308
vn -0.6100633 -0.7887366 -0.07561307
vn -0.6100633 -0.7887366 -0.07561307
vn 0.6109885 -0.7887366 -0.06773219
vn 0.6109885 -0.7887366 -0.06773219
vn 0.9664846 -0.2477642 -0.06723365
vn 0.9664846 -0.2477642 -0.06723365
vn 0.9123874 -0.4023278 -0.07537691
vn 0.9123874 -0.4023278 -0.07537691
vn 0.2245798 0.3550335 0.9074773
vn 0.2245798 0.3550335 0.9074773
vn 0.2245798 0.3550335 0.9074773
vn 0.2245798 0.3550335 0.9074773
vn 0.07001621 0.9191903 -0.3875396
vn 0.07001621 0.9191903 -0.3875396
vn 0.07001621 0.9191903 -0.3875396
vn 0.07001621 0.9191903 -0.3875396
vn -0.06909096 -0.9201156 0.3855045
vn -0.06909096 -0.9201156 0.3855045
vn -0.06909096 -0.9201156 0.3855045
vn -0.06909096 -0.9201156 0.3855045
vn 0.9742128 -0.147298 -0.1709172
vn 0.9742128 -0.147298 -0.1709172
vn 0.9742128 -0.147298 -0.1709172
vn 0.9742128 -0.147298 -0.1709172
vn -0.9732876 0.1463727 0.1768795
vn -0.9732876 0.1463727 0.1768795
vn -0.9732876 0.1463727 0.1768795
vn -0.9732876 0.1463727 0.1768795
vn -0.9887439 0.1231883 0.08491249
vn -0.9578313 0.1850137 0.2198391
vn 0.147298 0.4554998 0.8779654
vn 0.2941333 0.4323152 0.852402
vn 0.981941 -0.1395698 -0.127719
vn 0.9433001 -0.2091234 -0.2577834
vn -0.2391108 -0.4409686 -0.8650854
vn -0.06136274 -0.456425 -0.8876434
vn -0.9578313 0.1850137 0.2198391
vn -0.9887439 0.1231883 0.08491249
vn 0.1704825 0.8032677 -0.5706984
vn 0.1704825 0.8032677 -0.5706984
vn 0.1704825 0.8032677 -0.5706984
vn 0.1704825 0.8032677 -0.5706984
vn -0.9887439 0.1309164 0.07243194
vn -0.9578313 0.1927418 0.213096
vn 0.1395698 0.4554998 0.8792271
vn 0.2864051 0.4323152 0.8550296
vn 0.981941 -0.147298 -0.1187231
vn 0.9433001 -0.2168515 -0.2513171
vn -0.2391108 -0.4409686 -0.8650854
vn -0.06909096 -0.4641532 -0.8830562
vn -0.9578313 0.1927418 0.213096
vn -0.9887439 0.1309164 0.07243194
vn 0.1704825 0.8032677 -0.5706984
vn 0.1704825 0.8032677 -0.5706984
vn 0.1704825 0.8032677 -0.5706984
vn 0.1704825 0.8032677 -0.5706984
vn -0.9114622 -0.008190811 0.4113023
vn 0.6805421 0.2081982 0.7025069
vn 0.9201156 -0.2941333 0.258598
vn -0.4014026 0.3859462 0.8306151
vn 0.6032604 0.5405097 0.5864522
vn -0.2313826 0.6718887 0.703582
vn 0.765552 -0.008190811 -0.6433218
vn 0.8737465 -0.04683167 -0.4841217
vn 0.9201156 -0.2941333 0.258598
vn 0.8196493 0.2236545 -0.5274028
vn -0.8496368 0.246839 -0.4660341
vn -0.2313826 0.6718887 0.703582
vn 0.8737465 -0.04683167 -0.4841217
vn -0.9346467 0.2236545 -0.2764311
vn 0.8196493 0.2236545 -0.5274028
vn -0.8109958 0.4709561 -0.3471112
vn -0.9346467 0.2236545 -0.2764311
vn -0.8496368 0.246839 -0.4660341
vn -0.2313826 0.6718887 0.703582
vn -0.4014026 0.3859462 0.8306151
vn -0.8109958 0.4709561 -0.3471112
vn -0.9114622 -0.008190811 0.4113023
g trooperclone_cody_mesh_0
f 3/3/3 2/2/2 1/1/1
f 2/2/2 4/4/4 1/1/1
f 1/1/1 4/4/4 5/5/5
f 4/4/4 6/6/6 5/5/5
f 5/5/5 6/6/6 7/7/7
f 6/6/6 8/8/8 7/7/7
f 11/11/11 10/10/10 9/9/9
f 10/10/10 12/12/12 9/9/9
f 9/9/9 12/12/12 13/13/13
f 12/12/12 14/14/14 13/13/13
f 13/13/13 14/14/14 15/15/15
f 16/16/16 13/13/13 15/15/15
f 19/19/19 18/18/18 17/17/17
f 20/20/20 19/19/19 17/17/17
f 21/21/21 19/19/19 20/20/20
f 22/22/22 21/21/21 20/20/20
f 23/23/23 21/21/21 22/22/22
f 24/24/24 23/23/23 22/22/22
f 27/27/27 26/26/26 25/25/25
f 26/26/26 28/28/28 25/25/25
f 26/26/26 29/29/29 28/28/28
f 25/25/25 28/28/28 30/30/30
f 29/29/29 31/31/31 28/28/28
f 28/28/28 31/31/31 30/30/30
f 29/29/29 32/32/32 31/31/31
f 32/32/32 33/33/33 31/31/31
f 30/30/30 31/31/31 33/33/33
f 30/30/30 33/33/33 34/34/34
f 32/32/32 35/35/35 33/33/33
f 36/36/36 30/30/30 34/34/34
f 35/35/35 37/37/37 33/33/33
f 33/33/33 37/37/37 34/34/34
f 37/37/37 35/35/35 38/38/38
f 39/39/39 37/37/37 38/38/38
f 37/37/37 39/39/39 34/34/34
f 39/39/39 38/38/38 40/40/40
f 34/34/34 39/39/39 40/40/40
f 34/34/34 40/40/40 41/41/41
f 42/42/42 34/34/34 41/41/41
f 36/36/36 34/34/34 42/42/42
f 41/41/41 43/43/43 42/42/42
f 36/36/36 42/42/42 44/44/44
f 43/43/43 44/44/44 42/42/42
f 45/45/45 36/36/36 44/44/44
f 43/43/43 46/46/46 44/44/44
f 46/46/46 45/45/45 44/44/44
f 49/49/49 48/48/48 47/47/47
f 50/50/50 49/49/49 47/47/47
f 51/51/51 49/49/49 50/50/50
f 50/50/50 47/47/47 52/52/52
f 53/53/53 51/51/51 50/50/50
f 53/53/53 50/50/50 52/52/52
f 54/54/54 51/51/51 53/53/53
f 55/55/55 54/54/54 53/53/53
f 53/53/53 52/52/52 55/55/55
f 55/55/55 52/52/52 56/56/56
f 57/57/57 54/54/54 55/55/55
f 52/52/52 58/58/58 56/56/56
f 59/59/59 57/57/57 55/55/55
f 59/59/59 55/55/55 56/56/56
f 57/57/57 59/59/59 60/60/60
f 59/59/59 61/61/61 60/60/60
f 61/61/61 59/59/59 56/56/56
f 60/60/60 61/61/61 62/62/62
f 61/61/61 56/56/56 62/62/62
f 62/62/62 56/56/56 63/63/63
f 56/56/56 64/64/64 63/63/63
f 56/56/56 58/58/58 64/64/64
f 65/65/65 63/63/63 64/64/64
f 64/64/64 58/58/58 66/66/66
f 66/66/66 65/65/65 64/64/64
f 58/58/58 67/67/67 66/66/66
f 68/68/68 65/65/65 66/66/66
f 67/67/67 68/68/68 66/66/66
f 71/71/71 70/70/70 69/69/69
f 72/72/72 71/71/71 69/69/69
f 72/72/72 69/69/69 73/73/73
f 74/74/74 72/72/72 73/73/73
f 74/74/74 73/73/73 75/75/75
f 76/76/76 74/74/74 75/75/75
f 76/76/76 75/75/75 77/77/77
f 78/78/78 76/76/76 77/77/77
f 78/78/78 77/77/77 79/79/79
f 77/77/77 80/80/80 79/79/79
f 83/83/83 82/82/82 81/81/81
f 84/84/84 83/83/83 81/81/81
f 87/87/87 86/86/86 85/85/85
f 88/88/88 87/87/87 85/85/85
f 91/91/91 90/90/90 89/89/89
f 92/92/92 91/91/91 89/89/89
f 95/95/95 94/94/94 93/93/93
f 96/96/96 95/95/95 93/93/93
f 99/99/99 98/98/98 97/97/97
f 100/100/100 99/99/99 97/97/97
f 103/103/103 102/102/102 101/101/101
f 104/104/104 103/103/103 101/101/101
f 105/105/105 103/103/103 104/104/104
f 106/106/106 105/105/105 104/104/104
f 105/105/105 106/106/106 107/107/107
f 106/106/106 108/108/108 107/107/107
f 109/109/109 107/107/107 108/108/108
f 110/110/110 109/109/109 108/108/108
f 113/113/113 112/112/112 111/111/111
f 114/114/114 113/113/113 111/111/111
f 117/117/117 116/116/116 115/115/115
f 118/118/118 117/117/117 115/115/115
f 119/119/119 117/117/117 118/118/118
f 120/120/120 119/119/119 118/118/118
f 119/119/119 120/120/120 121/121/121
f 120/120/120 122/122/122 121/121/121
f 123/123/123 121/121/121 122/122/122
f 124/124/124 123/123/123 122/122/122
f 127/127/127 126/126/126 125/125/125
f 128/128/128 127/127/127 125/125/125
f 131/131/131 130/130/130 129/129/129
f 130/130/130 132/132/132 129/129/129
f 130/130/130 133/133/133 132/132/132
f 133/133/133 134/134/134 132/132/132
f 135/135/135 133/133/133 130/130/130
f 136/136/136 135/135/135 130/130/130
f 136/136/136 130/130/130 137/137/137
f 138/138/138 136/136/136 137/137/137
f 133/133/133 135/135/135 139/139/139
f 140/140/140 133/133/133 139/139/139
f 135/135/135 141/141/141 139/139/139
f 141/141/141 142/142/142 139/139/139
f 141/141/141 143/143/143 142/142/142
f 143/143/143 144/144/144 142/142/142
f 147/147/147 146/146/146 145/145/145
f 148/148/148 147/147/147 145/145/145
f 148/148/148 145/145/145 149/149/149
f 150/150/150 148/148/148 149/149/149
