g trooperclone_backpack_01_mesh
v -0.1073023 1.252249 -0.1910846
v -0.1073023 1.546884 -0.1910846
v -0.0918043 1.546884 -0.2000313
v -0.0918043 1.252249 -0.2000313
v -0.1139113 1.223043 -0.1910846
v -0.0918043 1.546884 -0.2178959
v -0.09956774 1.215885 -0.1999736
v -0.1324396 1.201253 -0.1910846
v -0.1215016 1.18942 -0.2000313
v -0.0918043 1.252249 -0.2178959
v -0.1073023 1.546884 -0.2268426
v -0.09951001 1.215856 -0.2178382
v -0.1215016 1.18942 -0.2178959
v -0.1073023 1.252249 -0.2268426
v -0.1227714 1.546884 -0.2178959
v -0.1138247 1.222956 -0.2268426
v -0.1324396 1.201253 -0.2268426
v -0.1227714 1.252249 -0.2178959
v -0.1227714 1.546884 -0.2000313
v -0.1281683 1.230113 -0.2179536
v -0.1434066 1.213086 -0.2178959
v -0.1227714 1.252249 -0.2000313
v -0.1073023 1.546884 -0.1910846
v -0.1073023 1.252249 -0.1910846
v -0.128226 1.230142 -0.2000602
v -0.1434066 1.213086 -0.2000313
v -0.1139113 1.223043 -0.1910846
v -0.1324396 1.201253 -0.1910846
v -0.1361626 1.545037 -0.1921236
v -0.1066674 1.633206 -0.175096
v -0.1066674 1.545037 -0.175096
v -0.1361626 1.633206 -0.1921236
v -0.1361626 1.545037 -0.2262076
v -0.1361626 1.633206 -0.2262076
v -0.1066674 1.545037 -0.2432352
v -0.1066674 1.633206 -0.2432352
v -0.07717213 1.545037 -0.2262076
v -0.07717213 1.633206 -0.2262076
v -0.07717213 1.545037 -0.1921236
v -0.07717213 1.633206 -0.1921236
v -0.1066674 1.545037 -0.175096
v -0.1066674 1.633206 -0.175096
v -0.1319202 1.186823 -0.1648506
v -0.1319202 1.53736 -0.1648506
v 3.874302E-07 1.53736 -0.1648506
v 3.874302E-07 1.186823 -0.1648506
v 0.1319209 1.186823 -0.1648506
v 0.1319209 1.53736 -0.1648506
v -0.02300128 1.521256 -0.1907383
v -0.02300128 1.202898 -0.1907383
v 3.874302E-07 1.222263 -0.2219363
v 3.874302E-07 1.501891 -0.2219363
v 0.1319209 1.186823 -0.1648506
v 0.1319209 1.53736 -0.1648506
v 0.09645161 1.501891 -0.2219363
v 0.09645161 1.222263 -0.2219363
v -0.1191351 1.202898 -0.1907383
v -0.1191351 1.521256 -0.1907383
v -0.1319202 1.53736 -0.1648506
v -0.1319202 1.186823 -0.1648506
v 3.874302E-07 1.501891 -0.2219363
v 3.874302E-07 1.222263 -0.2219363
v 0.09645161 1.222263 -0.2219363
v 0.09645161 1.501891 -0.2219363
v -0.1191351 1.202898 -0.1907383
v -0.1319202 1.186823 -0.1648506
v 3.874302E-07 1.186823 -0.1648506
v -0.02300128 1.202898 -0.1907383
v 3.874302E-07 1.222263 -0.2219363
v 0.1319209 1.186823 -0.1648506
v 0.09645161 1.222263 -0.2219363
v -0.1191351 1.521256 -0.1907383
v -0.1191351 1.202898 -0.1907383
v -0.02300128 1.202898 -0.1907383
v -0.02300128 1.521256 -0.1907383
v -0.1319202 1.53736 -0.1648506
v -0.1191351 1.521256 -0.1907383
v -0.02300128 1.521256 -0.1907383
v 3.874302E-07 1.53736 -0.1648506
v 3.874302E-07 1.501891 -0.2219363
v 0.1319209 1.53736 -0.1648506
v 0.09645161 1.501891 -0.2219363
v -0.08005816 1.397792 -0.2034946
v -0.05295831 1.53433 -0.1878523
v -0.05295831 1.397792 -0.1878523
v -0.08005816 1.53433 -0.2034946
v -0.08005816 1.397792 -0.2347503
v -0.08005816 1.53433 -0.2347503
v -0.05295831 1.397792 -0.2503926
v -0.05295831 1.53433 -0.2503926
v -0.02588731 1.397792 -0.2347503
v -0.02588731 1.53433 -0.2347503
v -0.02588731 1.397792 -0.2034946
v -0.02588731 1.53433 -0.2034946
v -0.05295831 1.397792 -0.1878523
v -0.05295831 1.53433 -0.1878523
v -0.07223701 1.290431 -0.2056302
v -0.05295831 1.399754 -0.1944901
v -0.05295831 1.290431 -0.1944901
v -0.07223701 1.399754 -0.2056302
v -0.07223701 1.290431 -0.2278816
v -0.07223701 1.399754 -0.2278816
v -0.05295831 1.290431 -0.2389928
v -0.05295831 1.399754 -0.2389928
v -0.03370845 1.290431 -0.2278816
v -0.03370845 1.399754 -0.2278816
v -0.03370845 1.290431 -0.2056302
v -0.03370845 1.399754 -0.2056302
v -0.05295831 1.290431 -0.1944901
v -0.05295831 1.399754 -0.1944901
v -0.0783554 1.210777 -0.204447
v -0.05295831 1.251326 -0.1800888
v -0.05295831 1.210777 -0.1897859
v -0.0867826 1.251326 -0.1995984
v -0.05295831 1.29401 -0.1878523
v -0.0783554 1.210777 -0.2337979
v -0.08005816 1.29401 -0.2034946
v -0.0867826 1.251326 -0.2386464
v -0.05295831 1.210777 -0.248459
v -0.08005816 1.29401 -0.2347503
v -0.05295831 1.251326 -0.258156
v -0.02756122 1.210777 -0.2337979
v -0.05295831 1.29401 -0.2503926
v -0.01916286 1.251326 -0.2386464
v -0.02756122 1.210777 -0.204447
v -0.02588731 1.29401 -0.2347503
v -0.01916286 1.251326 -0.1995984
v -0.05295831 1.210777 -0.1897859
v -0.02588731 1.29401 -0.2034946
v -0.05295831 1.251326 -0.1800888
v -0.05295831 1.29401 -0.1878523
v -0.0783554 1.210777 -0.204447
v -0.05295831 1.210777 -0.1897859
v -0.05295831 1.202148 -0.219108
v -0.0783554 1.210777 -0.2337979
v -0.02756122 1.210777 -0.204447
v -0.05295831 1.210777 -0.248459
v -0.02756122 1.210777 -0.2337979
v -0.08005816 1.397792 -0.2034946
v -0.05295831 1.397792 -0.1878523
v -0.05295831 1.397792 -0.219108
v -0.08005816 1.397792 -0.2347503
v -0.02588731 1.397792 -0.2034946
v -0.05295831 1.397792 -0.2503926
v -0.02588731 1.397792 -0.2347503
v -0.02588731 1.53433 -0.2347503
v -0.02588731 1.53433 -0.2034946
v -0.05295831 1.53433 -0.219108
v -0.05295831 1.53433 -0.2503926
v -0.05295831 1.53433 -0.1878523
v -0.08005816 1.53433 -0.2347503
v -0.08005816 1.53433 -0.2034946
v -0.07717213 1.633206 -0.2262076
v -0.07717213 1.633206 -0.1921236
v -0.1066674 1.633206 -0.2091512
v -0.1066674 1.633206 -0.2432352
v -0.1066674 1.633206 -0.175096
v -0.1361626 1.633206 -0.2262076
v -0.1361626 1.633206 -0.1921236
v -0.07717213 1.545037 -0.1921236
v -0.1066674 1.545037 -0.2091512
v -0.1066674 1.545037 -0.175096
v -0.07717213 1.545037 -0.2262076
v -0.1361626 1.545037 -0.1921236
v -0.1066674 1.545037 -0.2432352
v -0.1361626 1.545037 -0.2262076
v -0.113565 1.186909 -0.2238122
v -0.113565 1.186909 -0.1967701
v -0.1301308 1.203475 -0.2102768
v -0.1301308 1.203475 -0.2373477
v -0.1301308 1.203475 -0.1832346
v -0.1466967 1.220041 -0.2238122
v -0.1466967 1.220041 -0.1967701
v -0.1136516 1.171325 -0.1904208
v -0.1379808 1.195654 -0.2102768
v -0.1379808 1.195654 -0.1705649
v -0.1136516 1.171325 -0.2301327
v -0.1622812 1.219983 -0.1904208
v -0.1379808 1.195654 -0.2499886
v -0.1622812 1.219983 -0.2301327
v -0.02588731 1.29401 -0.2034946
v -0.05295831 1.29401 -0.1878523
v -0.05295831 1.29401 -0.219108
v -0.02588731 1.29401 -0.2347503
v -0.08005816 1.29401 -0.2034946
v -0.05295831 1.29401 -0.2503926
v -0.08005816 1.29401 -0.2347503
v -0.1379808 1.195654 -0.1705649
v -0.1301308 1.203475 -0.1832346
v -0.113565 1.186909 -0.1967701
v -0.1622812 1.219983 -0.1904208
v -0.1136516 1.171325 -0.1904208
v -0.1466967 1.220041 -0.1967701
v -0.113565 1.186909 -0.2238122
v -0.1622812 1.219983 -0.2301327
v -0.1136516 1.171325 -0.2301327
v -0.1466967 1.220041 -0.2238122
v -0.1301308 1.203475 -0.2373477
v -0.1379808 1.195654 -0.2499886
vt 0.6989627 0.8825604
vt 0.6989627 0.3798297
vt 0.6691642 0.3798297
vt 0.6691642 0.8825604
vt 0.6989627 0.9373513
vt 0.6384044 0.3798297
vt 0.6691642 0.9383125
vt 0.6989627 0.9882972
vt 0.6662804 0.9931034
vt 0.6384044 0.8825604
vt 0.6086058 0.3798297
vt 0.6393656 0.9373513
vt 0.6335981 0.9902197
vt 0.6086058 0.8825604
vt 0.577846 0.3798297
vt 0.609567 0.9306226
vt 0.6028383 0.9777235
vt 0.577846 0.8825604
vt 0.5480474 0.3798297
vt 0.5788072 0.9248551
vt 0.5759235 0.9642661
vt 0.5480474 0.8825604
vt 0.5172876 0.3798297
vt 0.5182489 0.8825604
vt 0.5490087 0.9238939
vt 0.5470862 0.9633049
vt 0.5182489 0.9248551
vt 0.5182489 0.9700336
vt 0.9902197 0.5749623
vt 0.8268082 0.6374431
vt 0.9902197 0.6374431
vt 0.8268082 0.5749623
vt 0.9902197 0.5115201
vt 0.8268082 0.5115201
vt 0.9902197 0.448078
vt 0.8268082 0.448078
vt 0.9902197 0.3855972
vt 0.8268082 0.3855972
vt 0.9902197 0.3221551
vt 0.8268082 0.3221551
vt 0.9902197 0.2587129
vt 0.8268082 0.2587129
vt 0.7191489 0.660513
vt 0.7191489 0.9854135
vt 0.8412269 0.9854135
vt 0.8412269 0.660513
vt 0.9633049 0.660513
vt 0.9633049 0.9854135
vt 0.2971627 0.9594599
vt 0.2971627 0.369256
vt 0.2539067 0.4048221
vt 0.2539067 0.9229326
vt 0.009750724 0.3394575
vt 0.009750724 0.9892585
vt 0.07511532 0.9229326
vt 0.07511532 0.4048221
vt 0.4711479 0.369256
vt 0.4711479 0.9594599
vt 0.5067139 0.9892585
vt 0.5067139 0.3394575
vt 0.2539067 0.9229326
vt 0.2539067 0.4048221
vt 0.07511532 0.4048221
vt 0.07511532 0.9229326
vt 0.4711479 0.369256
vt 0.5067139 0.3394575
vt 0.2539067 0.3394575
vt 0.2971627 0.369256
vt 0.2539067 0.4048221
vt 0.009750724 0.3394575
vt 0.07511532 0.4048221
vt 0.4711479 0.9594599
vt 0.4711479 0.369256
vt 0.2971627 0.369256
vt 0.2971627 0.9594599
vt 0.5067139 0.9892585
vt 0.4711479 0.9594599
vt 0.2971627 0.9594599
vt 0.2539067 0.9892585
vt 0.2539067 0.9229326
vt 0.009750724 0.9892585
vt 0.07511532 0.9229326
vt 0.0703091 0.326
vt 0.01263446 0.07319283
vt 0.01263446 0.326
vt 0.0703091 0.07319283
vt 0.1279837 0.326
vt 0.1279837 0.07319283
vt 0.1866196 0.326
vt 0.1866196 0.07319283
vt 0.2442943 0.326
vt 0.2442943 0.07319283
vt 0.3019689 0.326
vt 0.3019689 0.07319283
vt 0.3596436 0.326
vt 0.3596436 0.07319283
vt 0.6682029 0.3798297
vt 0.6980015 0.5288225
vt 0.6980015 0.3798297
vt 0.6682029 0.5288225
vt 0.6374431 0.3798297
vt 0.6374431 0.5288225
vt 0.6076446 0.3798297
vt 0.6076446 0.5288225
vt 0.5768847 0.3798297
vt 0.5768847 0.5288225
vt 0.5470862 0.3798297
vt 0.5470862 0.5288225
vt 0.5163264 0.3798297
vt 0.5163264 0.5288225
vt 0.448078 0.2221857
vt 0.373101 0.1500924
vt 0.3932871 0.2250694
vt 0.4394268 0.1462474
vt 0.3827134 0.0703091
vt 0.5057527 0.2202632
vt 0.4413493 0.06742537
vt 0.5019077 0.1443249
vt 0.5634273 0.2202632
vt 0.5019077 0.06550288
vt 0.5634273 0.1443249
vt 0.621102 0.2202632
vt 0.5634273 0.06550288
vt 0.6239857 0.1443249
vt 0.6778154 0.2221857
vt 0.624947 0.06550288
vt 0.6864666 0.1462474
vt 0.7335675 0.2250694
vt 0.6855053 0.06742537
vt 0.7537537 0.1500924
vt 0.7441412 0.0703091
vt 0.6451331 0.3346512
vt 0.692234 0.3625273
vt 0.692234 0.3077364
vt 0.6451331 0.2808216
vt 0.739335 0.3346512
vt 0.692234 0.2539067
vt 0.739335 0.2808216
vt 0.7076139 0.4740316
vt 0.7624049 0.5057527
vt 0.7624049 0.4423106
vt 0.7076139 0.4105895
vt 0.8162345 0.4740316
vt 0.7624049 0.3788685
vt 0.8162345 0.4105895
vt 0.4653804 0.2356431
vt 0.412512 0.2356431
vt 0.4394268 0.2817828
vt 0.4922953 0.2817828
vt 0.3855972 0.2817828
vt 0.4653804 0.3279225
vt 0.412512 0.3279225
vt 0.624947 0.3327287
vt 0.624947 0.2702479
vt 0.570156 0.3010077
vt 0.570156 0.3644498
vt 0.570156 0.2385268
vt 0.5153651 0.3327287
vt 0.5153651 0.2702479
vt 0.8162345 0.4740316
vt 0.7624049 0.4423106
vt 0.7624049 0.5057527
vt 0.8162345 0.4105895
vt 0.7076139 0.4740316
vt 0.7624049 0.3788685
vt 0.7076139 0.4105895
vt 0.8604518 0.2000771
vt 0.8604518 0.1568211
vt 0.8229632 0.1789297
vt 0.8239245 0.2212244
vt 0.8239245 0.1356737
vt 0.7854747 0.2000771
vt 0.7854747 0.1577823
vt 0.9767623 0.1097201
vt 0.9267776 0.08088279
vt 0.9267776 0.1395187
vt 0.9767623 0.05204546
vt 0.8767929 0.1097201
vt 0.9267776 0.02320814
vt 0.8758317 0.05204546
vt 0.8133508 0.5586211
vt 0.7633661 0.5297838
vt 0.7633661 0.5884197
vt 0.8133508 0.617257
vt 0.7133814 0.5586211
vt 0.7633661 0.6460943
vt 0.7133814 0.617257
vt 0.8239245 0.1097201
vt 0.8239245 0.1356737
vt 0.8604518 0.1568211
vt 0.7633661 0.1414412
vt 0.8835216 0.1443249
vt 0.7854747 0.1577823
vt 0.8604518 0.2000771
vt 0.7633661 0.215457
vt 0.8835216 0.2135345
vt 0.7854747 0.2000771
vt 0.8239245 0.2212244
vt 0.8239245 0.2481393
vn 0.01176465 -0.003921568 0.9999231
vn -0.003921509 0.003921509 0.9999846
vn 0.8666601 0.003921509 0.4988837
vn 0.8666601 -0.01960772 0.4985137
vn 0.1215677 -0.05098003 0.9912731
vn 0.8666601 0.003921509 -0.4988837
vn 0.8039154 -0.3803893 0.4571914
vn 0.07450926 -0.05882311 0.9954839
vn 0.6784262 -0.5686231 0.4651942
vn 0.8666601 -0.01960772 -0.4985137
vn -0.003921509 0.003921509 -0.9999846
vn 0.8039154 -0.3803893 -0.4571914
vn 0.6784262 -0.5686231 -0.4651942
vn 0.01176465 -0.003921568 -0.9999231
vn -0.86666 0.003921509 -0.4988838
vn 0.1215677 -0.05882311 -0.9908386
vn 0.07450926 -0.05882311 -0.9954839
vn -0.8588169 0.01960766 -0.5119073
vn -0.86666 0.003921509 0.4988838
vn -0.7254846 0.3803892 -0.5735644
vn -0.6235245 0.5529369 -0.5527006
vn -0.8588169 0.01960766 0.5119073
vn -0.003921509 0.003921509 0.9999846
vn 0.01176465 -0.003921568 0.9999231
vn -0.7254846 0.3803892 0.5735644
vn -0.6235245 0.5529369 0.5527006
vn 0.1215677 -0.05098003 0.9912731
vn 0.07450926 -0.05882311 0.9954839
vn -0.86666 0.003921509 0.4988838
vn -0.003921509 0.003921509 0.9999846
vn -0.003921509 0.003921509 0.9999846
vn -0.86666 0.003921509 0.4988838
vn -0.86666 0.003921509 -0.4988838
vn -0.86666 0.003921509 -0.4988838
vn -0.003921509 0.003921509 -0.9999846
vn -0.003921509 0.003921509 -0.9999846
vn 0.8666601 0.003921509 -0.4988837
vn 0.8666601 0.003921509 -0.4988837
vn 0.8666601 0.003921509 0.4988837
vn 0.8666601 0.003921509 0.4988837
vn -0.003921509 0.003921509 0.9999846
vn -0.003921509 0.003921509 0.9999846
vn -0.003921509 0.003921509 0.9999846
vn -0.003921509 0.003921509 0.9999846
vn -0.003921509 0.003921509 0.9999846
vn -0.003921509 0.003921509 0.9999846
vn -0.003921509 0.003921509 0.9999846
vn -0.003921509 0.003921509 0.9999846
vn -0.8039154 0.003921509 -0.5947308
vn -0.8039154 0.003921509 -0.5947308
vn -0.8039154 0.003921509 -0.5947308
vn -0.8039154 0.003921509 -0.5947308
vn 0.8509739 0.003921509 -0.5251933
vn 0.8509739 0.003921509 -0.5251933
vn 0.8509739 0.003921509 -0.5251933
vn 0.8509739 0.003921509 -0.5251933
vn -0.8980323 0.003921509 -0.439912
vn -0.8980323 0.003921509 -0.439912
vn -0.8980323 0.003921509 -0.439912
vn -0.8980323 0.003921509 -0.439912
vn -0.003921509 0.003921509 -0.9999846
vn -0.003921509 0.003921509 -0.9999846
vn -0.003921509 0.003921509 -0.9999846
vn -0.003921509 0.003921509 -0.9999846
vn -0.003921509 -0.8509739 -0.5251933
vn -0.003921509 -0.8509739 -0.5251933
vn -0.003921509 -0.8509739 -0.5251933
vn -0.003921509 -0.8509739 -0.5251933
vn -0.003921509 -0.8509739 -0.5251933
vn -0.003921509 -0.8509739 -0.5251933
vn -0.003921509 -0.8509739 -0.5251933
vn -0.003921509 0.003921509 -0.9999846
vn -0.003921509 0.003921509 -0.9999846
vn -0.003921509 0.003921509 -0.9999846
vn -0.003921509 0.003921509 -0.9999846
vn -0.003921509 0.8509738 -0.5251934
vn -0.003921509 0.8509738 -0.5251934
vn -0.003921509 0.8509738 -0.5251934
vn -0.003921509 0.8509738 -0.5251934
vn -0.003921509 0.8509738 -0.5251934
vn -0.003921509 0.8509738 -0.5251934
vn -0.003921509 0.8509738 -0.5251934
vn -0.86666 0.003921509 0.4988838
vn -0.003921509 0.003921509 0.9999846
vn -0.003921509 0.003921509 0.9999846
vn -0.86666 0.003921509 0.4988838
vn -0.86666 0.003921509 -0.4988838
vn -0.86666 0.003921509 -0.4988838
vn -0.003921509 0.003921509 -0.9999846
vn -0.003921509 0.003921509 -0.9999846
vn 0.8666601 0.003921509 -0.4988837
vn 0.8666601 0.003921509 -0.4988837
vn 0.8666601 0.003921509 0.4988837
vn 0.8666601 0.003921509 0.4988837
vn -0.003921509 0.003921509 0.9999846
vn -0.003921509 0.003921509 0.9999846
vn -0.86666 0.003921509 0.4988838
vn -0.003921509 0.003921509 0.9999846
vn -0.003921509 0.003921509 0.9999846
vn -0.86666 0.003921509 0.4988838
vn -0.86666 0.003921509 -0.4988838
vn -0.86666 0.003921509 -0.4988838
vn -0.003921509 0.003921509 -0.9999846
vn -0.003921509 0.003921509 -0.9999846
vn 0.8666601 0.003921509 -0.4988837
vn 0.8666601 0.003921509 -0.4988837
vn 0.8666601 0.003921509 0.4988837
vn 0.8666601 0.003921509 0.4988837
vn -0.003921509 0.003921509 0.9999846
vn -0.003921509 0.003921509 0.9999846
vn -0.8039154 -0.3803893 0.4571915
vn -0.003921509 -0.01960772 0.9998001
vn -0.003921509 -0.3803893 0.9248182
vn -0.86666 -0.01960772 0.4985138
vn -0.003921509 0.1764692 0.9842983
vn -0.8039154 -0.3803893 -0.4571915
vn -0.8509738 0.1764692 0.4946738
vn -0.86666 -0.01960772 -0.4985138
vn -0.003921509 -0.3803893 -0.9248182
vn -0.8509738 0.1764692 -0.4946738
vn -0.003921509 -0.01960772 -0.9998001
vn 0.8039154 -0.3803893 -0.4571914
vn -0.003921509 0.1764692 -0.9842983
vn 0.8666601 -0.01960772 -0.4985137
vn 0.8039154 -0.3803893 0.4571914
vn 0.8509739 0.1764692 -0.4946737
vn 0.8666601 -0.01960772 0.4985137
vn -0.003921509 -0.3803893 0.9248182
vn 0.8509739 0.1764692 0.4946737
vn -0.003921509 -0.01960772 0.9998001
vn -0.003921509 0.1764692 0.9842983
vn -0.8039154 -0.3803893 0.4571915
vn -0.003921509 -0.3803893 0.9248182
vn -0.003921509 -0.9999924 0
vn -0.8039154 -0.3803893 -0.4571915
vn 0.8039154 -0.3803893 0.4571914
vn -0.003921509 -0.3803893 -0.9248182
vn 0.8039154 -0.3803893 -0.4571914
vn -0.003921509 -0.9999924 0
vn -0.003921509 -0.9999924 0
vn -0.003921509 -0.9999924 0
vn -0.003921509 -0.9999924 0
vn -0.003921509 -0.9999924 0
vn -0.003921509 -0.9999924 0
vn -0.003921509 -0.9999924 0
vn -0.003921509 0.9999923 -0.000345267
vn -0.003921509 0.9999923 -0.000345267
vn -0.003921509 0.9999923 -0.000345267
vn -0.003921509 0.9999923 -0.000345267
vn -0.003921509 0.9999923 -0.000345267
vn -0.003921509 0.9999923 -0.000345267
vn -0.003921509 0.9999923 -0.000345267
vn -0.003921509 0.9999923 -0.000345267
vn -0.003921509 0.9999923 -0.000345267
vn -0.003921509 0.9999923 -0.000345267
vn -0.003921509 0.9999923 -0.000345267
vn -0.003921509 0.9999923 -0.000345267
vn -0.003921509 0.9999923 -0.000345267
vn -0.003921509 0.9999923 -0.000345267
vn -0.003921509 -0.9999924 0
vn -0.003921509 -0.9999924 0
vn -0.003921509 -0.9999924 0
vn -0.003921509 -0.9999924 0
vn -0.003921509 -0.9999924 0
vn -0.003921509 -0.9999924 0
vn -0.003921509 -0.9999924 0
vn 0.7071068 0.7071068 0
vn 0.7071068 0.7071068 0
vn 0.7071068 0.7071068 0
vn 0.7071068 0.7071068 0
vn 0.7071068 0.7071068 0
vn 0.7071068 0.7071068 0
vn 0.7071068 0.7071068 0
vn -0.7071068 -0.7071068 0
vn -0.7071068 -0.7071068 0
vn -0.7071068 -0.7071068 0
vn -0.7071068 -0.7071068 0
vn -0.7071068 -0.7071068 0
vn -0.7071068 -0.7071068 0
vn -0.7071068 -0.7071068 0
vn -0.003921509 0.9999923 -0.000345267
vn -0.003921509 0.9999923 -0.000345267
vn -0.003921509 0.9999923 -0.000345267
vn -0.003921509 0.9999923 -0.000345267
vn -0.003921509 0.9999923 -0.000345267
vn -0.003921509 0.9999923 -0.000345267
vn -0.003921509 0.9999923 -0.000345267
vn 0.5294077 0.5294076 0.662914
vn 0.5294077 0.5294076 0.662914
vn 0.9372478 0.1294107 0.3237584
vn 0.1294108 0.9372476 0.3237587
vn 0.9372478 0.1294107 0.3237584
vn 0.1294108 0.9372476 0.3237587
vn 0.9372478 0.1294107 -0.3237584
vn 0.1294108 0.9372476 -0.3237587
vn 0.9372478 0.1294107 -0.3237584
vn 0.1294108 0.9372476 -0.3237587
vn 0.5294077 0.5294076 -0.662914
vn 0.5294077 0.5294076 -0.662914
g trooperclone_backpack_01_mesh_0
f 3/3/3 2/2/2 1/1/1
f 4/4/4 3/3/3 1/1/1
f 1/1/1 5/5/5 4/4/4
f 6/6/6 3/3/3 4/4/4
f 5/5/5 7/7/7 4/4/4
f 5/5/5 8/8/8 7/7/7
f 8/8/8 9/9/9 7/7/7
f 10/10/10 6/6/6 4/4/4
f 4/4/4 7/7/7 10/10/10
f 11/11/11 6/6/6 10/10/10
f 7/7/7 9/9/9 12/12/12
f 7/7/7 12/12/12 10/10/10
f 9/9/9 13/13/13 12/12/12
f 14/14/14 11/11/11 10/10/10
f 10/10/10 12/12/12 14/14/14
f 15/15/15 11/11/11 14/14/14
f 12/12/12 13/13/13 16/16/16
f 12/12/12 16/16/16 14/14/14
f 13/13/13 17/17/17 16/16/16
f 18/18/18 15/15/15 14/14/14
f 14/14/14 16/16/16 18/18/18
f 19/19/19 15/15/15 18/18/18
f 16/16/16 17/17/17 20/20/20
f 16/16/16 20/20/20 18/18/18
f 17/17/17 21/21/21 20/20/20
f 22/22/22 19/19/19 18/18/18
f 18/18/18 20/20/20 22/22/22
f 23/23/23 19/19/19 22/22/22
f 24/24/24 23/23/23 22/22/22
f 20/20/20 21/21/21 25/25/25
f 20/20/20 25/25/25 22/22/22
f 22/22/22 25/25/25 24/24/24
f 21/21/21 26/26/26 25/25/25
f 25/25/25 27/27/27 24/24/24
f 25/25/25 26/26/26 27/27/27
f 26/26/26 28/28/28 27/27/27
f 31/31/31 30/30/30 29/29/29
f 30/30/30 32/32/32 29/29/29
f 29/29/29 32/32/32 33/33/33
f 32/32/32 34/34/34 33/33/33
f 33/33/33 34/34/34 35/35/35
f 34/34/34 36/36/36 35/35/35
f 35/35/35 36/36/36 37/37/37
f 36/36/36 38/38/38 37/37/37
f 37/37/37 38/38/38 39/39/39
f 38/38/38 40/40/40 39/39/39
f 39/39/39 40/40/40 41/41/41
f 40/40/40 42/42/42 41/41/41
f 45/45/45 44/44/44 43/43/43
f 46/46/46 45/45/45 43/43/43
f 46/46/46 47/47/47 45/45/45
f 47/47/47 48/48/48 45/45/45
f 51/51/51 50/50/50 49/49/49
f 52/52/52 51/51/51 49/49/49
f 55/55/55 54/54/54 53/53/53
f 56/56/56 55/55/55 53/53/53
f 59/59/59 58/58/58 57/57/57
f 60/60/60 59/59/59 57/57/57
f 63/63/63 62/62/62 61/61/61
f 64/64/64 63/63/63 61/61/61
f 67/67/67 66/66/66 65/65/65
f 68/68/68 67/67/67 65/65/65
f 68/68/68 69/69/69 67/67/67
f 69/69/69 70/70/70 67/67/67
f 69/69/69 71/71/71 70/70/70
f 74/74/74 73/73/73 72/72/72
f 75/75/75 74/74/74 72/72/72
f 78/78/78 77/77/77 76/76/76
f 79/79/79 78/78/78 76/76/76
f 78/78/78 79/79/79 80/80/80
f 79/79/79 81/81/81 80/80/80
f 81/81/81 82/82/82 80/80/80
f 85/85/85 84/84/84 83/83/83
f 84/84/84 86/86/86 83/83/83
f 83/83/83 86/86/86 87/87/87
f 86/86/86 88/88/88 87/87/87
f 87/87/87 88/88/88 89/89/89
f 88/88/88 90/90/90 89/89/89
f 89/89/89 90/90/90 91/91/91
f 90/90/90 92/92/92 91/91/91
f 91/91/91 92/92/92 93/93/93
f 92/92/92 94/94/94 93/93/93
f 93/93/93 94/94/94 95/95/95
f 94/94/94 96/96/96 95/95/95
f 99/99/99 98/98/98 97/97/97
f 98/98/98 100/100/100 97/97/97
f 97/97/97 100/100/100 101/101/101
f 100/100/100 102/102/102 101/101/101
f 101/101/101 102/102/102 103/103/103
f 102/102/102 104/104/104 103/103/103
f 103/103/103 104/104/104 105/105/105
f 104/104/104 106/106/106 105/105/105
f 105/105/105 106/106/106 107/107/107
f 106/106/106 108/108/108 107/107/107
f 107/107/107 108/108/108 109/109/109
f 108/108/108 110/110/110 109/109/109
f 113/113/113 112/112/112 111/111/111
f 112/112/112 114/114/114 111/111/111
f 112/112/112 115/115/115 114/114/114
f 111/111/111 114/114/114 116/116/116
f 115/115/115 117/117/117 114/114/114
f 114/114/114 118/118/118 116/116/116
f 114/114/114 117/117/117 118/118/118
f 116/116/116 118/118/118 119/119/119
f 117/117/117 120/120/120 118/118/118
f 118/118/118 121/121/121 119/119/119
f 118/118/118 120/120/120 121/121/121
f 119/119/119 121/121/121 122/122/122
f 120/120/120 123/123/123 121/121/121
f 121/121/121 124/124/124 122/122/122
f 121/121/121 123/123/123 124/124/124
f 122/122/122 124/124/124 125/125/125
f 123/123/123 126/126/126 124/124/124
f 124/124/124 127/127/127 125/125/125
f 124/124/124 126/126/126 127/127/127
f 125/125/125 127/127/127 128/128/128
f 126/126/126 129/129/129 127/127/127
f 127/127/127 130/130/130 128/128/128
f 127/127/127 129/129/129 130/130/130
f 129/129/129 131/131/131 130/130/130
f 134/134/134 133/133/133 132/132/132
f 134/134/134 132/132/132 135/135/135
f 134/134/134 136/136/136 133/133/133
f 137/137/137 134/134/134 135/135/135
f 138/138/138 136/136/136 134/134/134
f 137/137/137 138/138/138 134/134/134
f 141/141/141 140/140/140 139/139/139
f 141/141/141 139/139/139 142/142/142
f 141/141/141 143/143/143 140/140/140
f 144/144/144 141/141/141 142/142/142
f 145/145/145 143/143/143 141/141/141
f 144/144/144 145/145/145 141/141/141
f 148/148/148 147/147/147 146/146/146
f 148/148/148 146/146/146 149/149/149
f 148/148/148 150/150/150 147/147/147
f 151/151/151 148/148/148 149/149/149
f 152/152/152 150/150/150 148/148/148
f 151/151/151 152/152/152 148/148/148
f 155/155/155 154/154/154 153/153/153
f 155/155/155 153/153/153 156/156/156
f 155/155/155 157/157/157 154/154/154
f 158/158/158 155/155/155 156/156/156
f 159/159/159 157/157/157 155/155/155
f 158/158/158 159/159/159 155/155/155
f 162/162/162 161/161/161 160/160/160
f 160/160/160 161/161/161 163/163/163
f 164/164/164 161/161/161 162/162/162
f 163/163/163 161/161/161 165/165/165
f 166/166/166 161/161/161 164/164/164
f 165/165/165 161/161/161 166/166/166
f 169/169/169 168/168/168 167/167/167
f 169/169/169 167/167/167 170/170/170
f 169/169/169 171/171/171 168/168/168
f 172/172/172 169/169/169 170/170/170
f 173/173/173 171/171/171 169/169/169
f 172/172/172 173/173/173 169/169/169
f 176/176/176 175/175/175 174/174/174
f 174/174/174 175/175/175 177/177/177
f 178/178/178 175/175/175 176/176/176
f 177/177/177 175/175/175 179/179/179
f 180/180/180 175/175/175 178/178/178
f 179/179/179 175/175/175 180/180/180
f 183/183/183 182/182/182 181/181/181
f 183/183/183 181/181/181 184/184/184
f 185/185/185 182/182/182 183/183/183
f 183/183/183 184/184/184 186/186/186
f 187/187/187 185/185/185 183/183/183
f 187/187/187 183/183/183 186/186/186
f 190/190/190 189/189/189 188/188/188
f 188/188/188 189/189/189 191/191/191
f 192/192/192 190/190/190 188/188/188
f 189/189/189 193/193/193 191/191/191
f 194/194/194 190/190/190 192/192/192
f 191/191/191 193/193/193 195/195/195
f 196/196/196 194/194/194 192/192/192
f 193/193/193 197/197/197 195/195/195
f 198/198/198 194/194/194 196/196/196
f 195/195/195 197/197/197 199/199/199
f 199/199/199 198/198/198 196/196/196
f 197/197/197 198/198/198 199/199/199
