# Blender 4.2.3 LTS
# www.blender.org
o range-ruler-stick
v 0.183747 0.027699 -1.065197
v 0.183747 -0.027699 1.203837
v 0.183747 -0.027698 -1.065197
v 0.183747 -0.027700 5.999937
v 0.183747 -0.027699 3.601886
v 0.183747 0.027698 3.601886
v -0.183747 0.027698 5.999937
v -0.183747 -0.027700 5.999937
v 0.183747 0.027698 5.999937
v -0.183747 0.027698 3.601886
v -0.183747 -0.027699 3.601886
v -0.183747 0.027699 -1.065197
v -0.183747 0.027698 1.203837
v -0.183747 -0.027698 -1.065197
v -0.183747 -0.027699 1.203837
v 0.183747 0.027698 1.203837
v 0.183747 -0.027698 -1.065287
v 0.183747 0.027699 -3.592352
v 0.183747 0.027699 -1.065287
v -0.183747 0.027699 -1.065287
v -0.183747 -0.027698 -1.065287
v -0.183747 0.027699 -3.592352
v 0.183747 0.027699 -5.990403
v -0.183747 0.027699 -5.990403
v -0.183747 -0.027698 -3.592352
v -0.183747 -0.027698 -5.990403
v 0.183747 -0.027698 -3.592352
v 0.183747 -0.027698 -5.990403
vn 1.0000 -0.0000 -0.0000
vn -0.0000 -0.0000 1.0000
vn -0.0000 1.0000 -0.0000
vn -0.0000 -1.0000 -0.0000
vn -1.0000 -0.0000 -0.0000
vn -0.0000 -0.0000 -1.0000
vt 0.860600 -0.003900
vt 0.811400 0.329400
vt 0.811400 -0.003900
vt 0.811400 0.996100
vt 0.811400 0.662800
vt 0.860600 0.662800
vt 1.000000 0.066700
vt 0.950800 0.066700
vt 1.000000 0.000000
vt 0.501300 0.996600
vt 0.449300 0.667500
vt 0.500500 0.667500
vt 0.571600 0.999100
vt 0.571000 0.653404
vt 0.622800 0.999100
vt 0.499500 0.002379
vt 0.500100 0.326740
vt 0.448300 0.002379
vt 0.570600 0.001100
vt 0.621900 0.313138
vt 0.570700 0.313138
vt 0.860600 0.329400
vt 0.909800 0.662800
vt 0.622200 0.653404
vt 0.860600 0.996100
vt 0.555000 0.691589
vt 0.501500 0.336800
vt 0.552700 0.336400
vt 0.499300 0.002700
vt 0.550500 0.002300
vt 0.909800 0.996100
vt 0.909800 0.329400
vt 0.626400 0.315556
vt 0.677600 0.315556
vt 0.678100 0.670800
vt 1.000000 0.133500
vt 0.950800 0.000000
vt 0.450100 0.996700
vt 0.621800 0.001000
vt 0.448900 0.326740
vt 0.448300 0.001200
vt 0.503800 0.691989
vt 0.331100 0.436300
vt 0.156100 0.512700
vt 0.342700 0.436300
vt 0.137500 0.438000
vt 0.625900 0.002600
vt 0.950800 0.133500
vt 0.909800 -0.003900
vt 0.626900 0.670800
vt 0.677100 0.002600
s 1
f 1/1/1 2/2/1 3/3/1
f 4/4/1 5/5/1 6/6/1
f 7/7/2 8/8/2 9/9/2
f 7/10/3 6/11/3 10/12/3
f 8/13/4 11/14/4 4/15/4
f 12/16/3 13/17/3 1/18/3
f 14/19/4 2/20/4 15/21/4
f 13/22/5 11/23/5 10/6/5
f 15/21/4 5/24/4 11/14/4
f 5/5/1 2/2/1 16/22/1
f 17/4/1 18/6/1 19/25/1
f 20/7/2 21/8/2 19/9/2
f 20/26/3 18/27/3 22/28/3
f 22/28/3 23/29/3 24/30/3
f 22/6/5 25/23/5 21/31/5
f 24/22/5 26/32/5 25/23/5
f 25/33/4 27/34/4 17/35/4
f 27/5/1 28/2/1 23/22/1
f 1/36/6 14/8/6 12/7/6
f 9/9/2 8/8/2 4/37/2
f 9/38/3 6/11/3 7/10/3
f 3/39/4 2/20/4 14/19/4
f 7/25/5 10/6/5 8/31/5
f 12/1/5 15/32/5 13/22/5
f 10/12/3 6/11/3 16/40/3
f 13/17/3 16/40/3 1/41/3
f 11/14/4 5/24/4 4/15/4
f 15/21/4 2/20/4 5/24/4
f 19/9/2 21/8/2 17/37/2
f 19/42/3 18/27/3 20/26/3
f 17/4/1 27/5/1 18/6/1
f 20/25/5 22/6/5 21/31/5
f 22/28/3 18/27/3 23/29/3
f 24/22/5 25/23/5 22/6/5
f 23/43/6 28/44/6 26/45/6 24/46/6
f 26/47/4 27/34/4 25/33/4
f 4/4/1 6/6/1 9/25/1
f 3/48/6 14/8/6 1/36/6
f 14/49/5 15/32/5 12/1/5
f 10/12/3 16/40/3 13/17/3
f 10/6/5 11/23/5 8/31/5
f 13/22/5 15/32/5 11/23/5
f 16/22/1 2/2/1 1/1/1
f 6/6/1 5/5/1 16/22/1
f 21/50/4 25/33/4 17/35/4
f 18/6/1 27/5/1 23/22/1
f 26/47/4 28/51/4 27/34/4
