g trooperclone_arc_rex_mesh
v 0.0002757907 1.11728 -0.1336505
v -0.008657992 1.046614 -0.1674323
v -0.09997791 1.113057 -0.1203217
v -0.1182476 1.042765 -0.1418374
v -0.1713333 1.035009 -0.08246082
v -0.1549307 1.10938 -0.07456118
v -0.1255153 0.8727356 -0.1527246
v -0.0173907 0.8789692 -0.1796408
v -0.1289624 0.6401126 -0.1590156
v -0.02238902 0.6506838 -0.1909014
v -0.1927054 0.6312937 -0.09587586
v -0.1858399 0.8630837 -0.0913946
v -0.2105155 0.6134835 0.01374251
v -0.2022999 0.8507028 0.01767796
v -0.1393612 0.5885782 0.1036261
v -0.1364025 0.8506167 0.09765109
v -0.1838865 1.02438 0.0170747
v -0.1460257 1.103807 0.004176736
v -0.1273825 1.015015 0.09394544
v -0.1077626 1.105818 0.07912284
v 0.01736775 0.8789692 -0.1796408
v 0.1289682 0.6401126 -0.1590156
v 0.02239481 0.6506838 -0.1909014
v 0.1254923 0.8727356 -0.1527246
v 0.1927112 0.6312937 -0.09587586
v 0.008663774 1.046614 -0.1674323
v 0.1858456 0.8630837 -0.0913946
v 0.2105213 0.6134835 0.01374251
v 0.1182534 1.042765 -0.1418374
v 0.2023056 0.8507028 0.01767796
v 0.139367 0.5885782 0.1036261
v 0.1364082 0.8506167 0.09765109
v 0.09998368 1.113057 -0.1203217
v -0.000270009 1.11728 -0.1336505
v 0.1713103 1.035009 -0.08246082
v 0.1549365 1.10938 -0.07456118
v 0.1838923 1.02438 0.0170747
v 0.1273883 1.015015 0.09394544
v 0.1460314 1.103807 0.004176736
v 0.1077397 1.105818 0.07912284
v 0.2310891 1.50577 -0.1679206
v 0.09087755 1.554662 -0.1270723
v 0.2593267 1.542281 -0.1308354
v 0.2868462 1.577901 -0.08926888
v 0.09093499 1.579768 -0.07430264
v 0.2929361 1.587783 -0.0347757
v 0.09096372 1.581004 -0.03029445
v 0.09087755 1.566181 0.02233157
v 0.2893167 1.565434 0.01388612
v 0.09076263 1.523523 0.06203088
v 0.2605619 1.515106 0.04913291
v 0.2309742 1.465094 0.07978353
v 0.2071316 0.8632848 0.0382745
v 0.1903269 1.008581 0.0382745
v 0.2397069 1.014297 0.0382745
v 0.2565116 0.8689725 0.0382745
v 0.1903269 1.008581 0.0382745
v 0.1852424 0.9649748 -0.07573895
v 0.2346224 0.9706625 -0.07573895
v 0.2397069 1.014297 0.0382745
v 0.1852424 0.9649748 -0.07573895
v 0.201214 0.8269464 -0.07573895
v 0.250594 0.8326629 -0.07573895
v 0.2346224 0.9706625 -0.07573895
v 0.201214 0.8269464 -0.07573895
v 0.2113256 0.8269464 0.001706302
v 0.250594 0.8326629 -0.00510174
v 0.250594 0.8326629 -0.07573895
v 0.2346224 0.9706625 -0.07573895
v 0.250594 0.8326629 -0.07573895
v 0.250594 0.8326629 -0.00510174
v 0.2565116 0.8689725 0.0382745
v 0.2397069 1.014297 0.0382745
v 0.2071316 0.8632848 0.0382745
v 0.2565116 0.8689725 0.0382745
v 0.250594 0.8326629 -0.00510174
v 0.2113256 0.8269464 0.001706302
v 0.1852424 0.9649748 -0.07573895
v 0.1903269 1.008581 0.0382745
v 0.2071316 0.8632848 0.0382745
v 0.2113256 0.8269464 0.001706302
v 0.201214 0.8269464 -0.07573895
v -1.147389E-05 1.118142 -0.1353166
v -0.1006386 1.113718 -0.1219016
v -0.009060174 1.04716 -0.1691846
v -0.1191669 1.043138 -0.1433599
v -0.1729419 1.035353 -0.08312152
v -0.1565681 1.109926 -0.07490589
v -0.1264345 0.8728505 -0.1543045
v -0.01785031 0.8790841 -0.1814793
v -0.1299104 0.6401701 -0.1605955
v -0.02290609 0.6507699 -0.1927112
v -0.1943428 0.6313511 -0.09659401
v -0.1874773 0.8631986 -0.09211276
v -0.2122103 0.6135123 0.01431701
v -0.2039947 0.850789 0.01822376
v -0.1408263 0.588607 0.1048039
v -0.1378962 0.8507028 0.09882885
v -0.1855813 1.024754 0.0176205
v -0.1477205 1.104439 0.004693806
v -0.128905 1.015216 0.09509447
v -0.1093138 1.106278 0.08009952
v 0.01785609 0.8790841 -0.1814793
v 0.02291185 0.6507699 -0.1927112
v 0.1298874 0.6401701 -0.1605955
v 0.1264403 0.8728505 -0.1543045
v 0.1943485 0.6313511 -0.09659401
v 0.009037197 1.04716 -0.1691846
v 0.187483 0.8631986 -0.09211276
v 0.2121874 0.6135123 0.01431701
v 0.1191439 1.043138 -0.1433599
v 0.2040005 0.850789 0.01822376
v 0.140832 0.588607 0.1048039
v 0.137902 0.8507028 0.09882885
v 0.1006444 1.113718 -0.1219016
v -1.147389E-05 1.118142 -0.1353166
v 0.1729189 1.035353 -0.08312152
v 0.1565739 1.109926 -0.07490589
v 0.1855871 1.024754 0.0176205
v 0.128882 1.015216 0.09509447
v 0.1477263 1.104439 0.004693806
v 0.1093196 1.106278 0.08009952
v -0.1011557 1.351425 0.117788
v -0.1042294 1.363318 0.1417167
v -0.01911426 1.365013 0.1559936
v -0.01336905 1.356941 0.1326968
v -0.09848416 1.497325 0.06257668
v -0.0157246 1.500772 0.07501501
v -0.01914299 1.512176 0.1098309
v -0.1019025 1.508844 0.09736383
v -0.01911426 1.365013 0.1559936
v -0.1042294 1.363318 0.1417167
v -0.1019025 1.508844 0.09736383
v -0.01914299 1.512176 0.1098309
v -0.1019025 1.508844 0.09736383
v -0.1042294 1.363318 0.1417167
v -0.1011557 1.351425 0.117788
v -0.09848416 1.497325 0.06257668
v -0.01336905 1.356941 0.1326968
v -0.01911426 1.365013 0.1559936
v -0.01914299 1.512176 0.1098309
v -0.0157246 1.500772 0.07501501
v 0.2311465 1.507092 -0.1692708
v 0.2593842 1.54366 -0.1321568
v 0.09090626 1.556156 -0.1282213
v 0.2868749 1.579567 -0.09007321
v 0.09090626 1.581607 -0.07473354
v 0.2929074 1.589621 -0.0345459
v 0.09090626 1.582871 -0.03006464
v 0.09090626 1.567818 0.02322206
v 0.2894028 1.566784 0.01515007
v 0.09090626 1.524614 0.06358209
v 0.2607343 1.516083 0.05077028
v 0.2311465 1.466013 0.08144963
v -0.2071258 0.8632848 0.0382745
v -0.2565058 0.8689725 0.0382745
v -0.2397011 1.014297 0.0382745
v -0.1903211 1.008581 0.0382745
v -0.1903211 1.008581 0.0382745
v -0.2397011 1.014297 0.0382745
v -0.2346166 0.9706625 -0.07573895
v -0.1852654 0.9649748 -0.07573895
v -0.1852654 0.9649748 -0.07573895
v -0.2346166 0.9706625 -0.07573895
v -0.2505883 0.8326629 -0.07573895
v -0.2012083 0.8269464 -0.07573895
v -0.2012083 0.8269464 -0.07573895
v -0.2505883 0.8326629 -0.07573895
v -0.2505883 0.8326629 -0.00510174
v -0.2113486 0.8269464 0.001706302
v -0.2346166 0.9706625 -0.07573895
v -0.2505883 0.8326629 -0.00510174
v -0.2505883 0.8326629 -0.07573895
v -0.2565058 0.8689725 0.0382745
v -0.2397011 1.014297 0.0382745
v -0.2071258 0.8632848 0.0382745
v -0.2113486 0.8269464 0.001706302
v -0.2505883 0.8326629 -0.00510174
v -0.2565058 0.8689725 0.0382745
v -0.1852654 0.9649748 -0.07573895
v -0.2071258 0.8632848 0.0382745
v -0.1903211 1.008581 0.0382745
v -0.2113486 0.8269464 0.001706302
v -0.2012083 0.8269464 -0.07573895
v 0.1473816 1.55989 -0.05864699
v 0.1488753 1.546963 0.006532282
v 0.08501744 1.575603 -0.007198751
v 0.1402001 1.470523 0.09164736
v 0.08495998 1.584853 -0.06519651
v 0.06979267 1.543918 0.04344517
v -1.147389E-05 1.474143 0.1080786
v -1.147389E-05 1.530417 0.06852296
v -0.1401943 1.470523 0.09164736
v -0.06978691 1.543918 0.04344517
v -0.1488695 1.546963 0.006532282
v -0.08504039 1.575603 -0.007198751
v 0.07062572 1.563509 -0.1244295
v -0.1474045 1.55989 -0.05864699
v -0.0849542 1.584853 -0.06519651
v 0.1439057 1.534439 -0.1127667
v 0.1428428 1.495228 -0.147439
v -0.07064867 1.563509 -0.1244295
v -1.147389E-05 1.496951 -0.1480422
v -1.147389E-05 1.550152 -0.1348857
v -0.1439286 1.534439 -0.1127667
v -0.1428658 1.495228 -0.147439
vt 0.005864957 0.9885627
vt -0.0009661098 0.8900002
vt 0.1327276 0.9709971
vt 0.1366311 0.8773139
vt 0.2332419 0.8743863
vt 0.2264108 0.9680695
vt 0.137607 0.6694543
vt -0.0009661098 0.6801888
vt 0.1483415 0.3805978
vt 0.007816691 0.3952358
vt 0.2625179 0.3766943
vt 0.2439764 0.6626232
vt 0.3962117 0.3688874
vt 0.371815 0.6606715
vt 0.5425916 0.3532735
vt 0.4996535 0.6801888
vt 0.3474183 0.8724346
vt 0.3298527 0.9768523
vt 0.4654982 0.8851209
vt 0.4352463 0.9963697
vt -0.0009661098 0.6801888
vt 0.1483415 0.3805978
vt 0.007816691 0.3952358
vt 0.137607 0.6694543
vt 0.2625179 0.3766943
vt -0.0009661098 0.8900002
vt 0.2439764 0.6626232
vt 0.3962117 0.3688874
vt 0.1366311 0.8773139
vt 0.371815 0.6606715
vt 0.5425916 0.3532735
vt 0.4996535 0.6801888
vt 0.1327276 0.9709971
vt 0.005864957 0.9885627
vt 0.2332419 0.8743863
vt 0.2264108 0.9680695
vt 0.3474183 0.8724346
vt 0.4654982 0.8851209
vt 0.3298527 0.9768523
vt 0.4352463 0.9963697
vt 0.5338088 0.6245644
vt 0.6177334 0.4352463
vt 0.6050471 0.6606715
vt 0.6782371 0.6977544
vt 0.6967786 0.4342704
vt 0.7543547 0.7045855
vt 0.7563065 0.4332946
vt 0.8304723 0.4323187
vt 0.8275447 0.6987303
vt 0.9104934 0.4313428
vt 0.9104934 0.6596956
vt 0.9895386 0.6216368
vt 0.7016579 0.1405345
vt 0.700682 0.3493701
vt 0.7719203 0.3503459
vt 0.7728962 0.1405345
vt 0.7982687 0.415729
vt 0.9514798 0.3542494
vt 0.9251314 0.2888663
vt 0.7719203 0.3503459
vt 0.9963697 0.2888663
vt 0.9973455 0.09076536
vt 0.9270831 0.09076536
vt 0.9251314 0.2888663
vt 0.9261072 0.01952709
vt 0.825593 0.01952709
vt 0.8265688 0.09076536
vt 0.9270831 0.09076536
vt 0.9251314 0.2888663
vt 0.9270831 0.09076536
vt 0.8265688 0.09076536
vt 0.7728962 0.1405345
vt 0.7719203 0.3503459
vt 0.7250787 0.08783776
vt 0.7728962 0.1405345
vt 0.8265688 0.09076536
vt 0.7807031 0.03806856
vt 0.283987 0.2244591
vt 0.327901 0.1171138
vt 0.1805451 0.1171138
vt 0.144438 0.1532208
vt 0.144438 0.2244591
vt 0.005864957 0.9885627
vt 0.1327276 0.9709971
vt -0.0009661098 0.8900002
vt 0.1366311 0.8773139
vt 0.2332419 0.8743863
vt 0.2264108 0.9680695
vt 0.137607 0.6694543
vt -0.0009661098 0.6801888
vt 0.1483415 0.3805978
vt 0.007816691 0.3952358
vt 0.2625179 0.3766943
vt 0.2439764 0.6626232
vt 0.3962117 0.3688874
vt 0.371815 0.6606715
vt 0.5425916 0.3532735
vt 0.4996535 0.6801888
vt 0.3474183 0.8724346
vt 0.3298527 0.9768523
vt 0.4654982 0.8851209
vt 0.4352463 0.9963697
vt -0.0009661098 0.6801888
vt 0.007816691 0.3952358
vt 0.1483415 0.3805978
vt 0.137607 0.6694543
vt 0.2625179 0.3766943
vt -0.0009661098 0.8900002
vt 0.2439764 0.6626232
vt 0.3962117 0.3688874
vt 0.1366311 0.8773139
vt 0.371815 0.6606715
vt 0.5425916 0.3532735
vt 0.4996535 0.6801888
vt 0.1327276 0.9709971
vt 0.005864957 0.9885627
vt 0.2332419 0.8743863
vt 0.2264108 0.9680695
vt 0.3474183 0.8724346
vt 0.4654982 0.8851209
vt 0.3298527 0.9768523
vt 0.4352463 0.9963697
vt 0.4977018 0.005864957
vt 0.5006294 0.04782723
vt 0.635299 0.04392376
vt 0.6362748 0.004889091
vt 0.5006294 0.342539
vt 0.6304196 0.3415631
vt 0.6343231 0.2849628
vt 0.503557 0.2849628
vt 0.635299 0.04392376
vt 0.5006294 0.04782723
vt 0.503557 0.2849628
vt 0.6343231 0.2849628
vt 0.503557 0.2849628
vt 0.5006294 0.04782723
vt 0.4586671 0.04197203
vt 0.4459808 0.283987
vt 0.6743336 0.04294789
vt 0.635299 0.04392376
vt 0.6343231 0.2849628
vt 0.6918992 0.283987
vt 0.5338088 0.6245644
vt 0.6050471 0.6606715
vt 0.6177334 0.4352463
vt 0.6782371 0.6977544
vt 0.6967786 0.4342704
vt 0.7543547 0.7045855
vt 0.7563065 0.4332946
vt 0.8304723 0.4323187
vt 0.8275447 0.6987303
vt 0.9104934 0.4313428
vt 0.9104934 0.6596956
vt 0.9895386 0.6216368
vt 0.7016579 0.1405345
vt 0.7728962 0.1405345
vt 0.7719203 0.3503459
vt 0.700682 0.3493701
vt 0.7982687 0.415729
vt 0.7719203 0.3503459
vt 0.9251314 0.2888663
vt 0.9514798 0.3542494
vt 0.9963697 0.2888663
vt 0.9251314 0.2888663
vt 0.9270831 0.09076536
vt 0.9973455 0.09076536
vt 0.9261072 0.01952709
vt 0.9270831 0.09076536
vt 0.8265688 0.09076536
vt 0.825593 0.01952709
vt 0.9251314 0.2888663
vt 0.8265688 0.09076536
vt 0.9270831 0.09076536
vt 0.7728962 0.1405345
vt 0.7719203 0.3503459
vt 0.7250787 0.08783776
vt 0.7807031 0.03806856
vt 0.8265688 0.09076536
vt 0.7728962 0.1405345
vt 0.283987 0.2244591
vt 0.1805451 0.1171138
vt 0.327901 0.1171138
vt 0.144438 0.1532208
vt 0.144438 0.2244591
vt 0.2615421 0.01074429
vt 0.1727382 0.005864957
vt 0.1971348 0.07417563
vt 0.02343056 0.01074429
vt 0.2654455 0.07905496
vt 0.1258966 0.08686189
vt 0.008792557 0.173714
vt 0.09466883 0.1727382
vt 0.02928576 0.3357079
vt 0.1288242 0.2566627
vt 0.1766416 0.3376597
vt 0.2010383 0.269349
vt 0.3366838 0.09466883
vt 0.2644697 0.3337562
vt 0.2703249 0.2664214
vt 0.3396114 0.01074429
vt 0.4069462 0.006840824
vt 0.3444907 0.2527592
vt 0.4401256 0.1717623
vt 0.3727908 0.1727382
vt 0.3435149 0.3357079
vt 0.4108497 0.3396114
vn 0.1361122 -0.4402171 0.8875147
vn 0.2296829 -0.1361122 0.9637008
vn 0.4714073 -0.3466463 0.8109325
vn 0.4714073 -0.1361122 0.8713487
vn 0.9002732 -0.1361122 0.4134992
vn 0.8378927 -0.3310512 0.4339827
vn 0.4714073 -0.05813658 0.8799973
vn 0.2530756 -0.05813658 0.9656981
vn 0.4948 -0.03474385 0.8683121
vn 0.2686707 -0.04254144 0.9622922
vn 0.9236659 -0.03474385 0.3816205
vn 0.9158683 -0.05813658 0.3972473
vn 0.9470586 -0.02694631 -0.3199281
vn 0.9626537 -0.05033898 -0.2660147
vn 0.7755122 -0.01914877 -0.6310421
vn 0.7833098 -0.04254144 -0.6201742
vn 0.9626537 -0.1361122 -0.2340328
vn 0.8534878 -0.4480146 -0.2661606
vn 0.7833098 -0.1049219 -0.612713
vn 0.7833098 -0.3466463 -0.516006
vn -0.2537659 -0.05813658 0.9655169
vn -0.4954903 -0.03474385 0.8679183
vn -0.269361 -0.04254144 0.9620992
vn -0.4720976 -0.05813658 0.8796272
vn -0.9165586 -0.03474385 0.3983882
vn -0.2303733 -0.1361122 0.963536
vn -0.908761 -0.05813658 0.4132475
vn -0.9477489 -0.02694631 -0.3178772
vn -0.4720976 -0.1361122 0.8709749
vn -0.963344 -0.05033898 -0.263504
vn -0.7762026 -0.01914877 -0.6301928
vn -0.7762026 -0.04254144 -0.6290467
vn -0.4720976 -0.3466463 0.8105308
vn -0.1368024 -0.4402171 0.8874086
vn -0.9009635 -0.1361122 0.4119929
vn -0.838583 -0.3310512 0.4326473
vn -0.963344 -0.1361122 -0.231175
vn -0.784 -0.1049219 -0.6118295
vn -0.8541781 -0.4480146 -0.263937
vn -0.784 -0.3466463 -0.5149565
vn -0.03543413 -0.6975366 0.7156725
vn 0.003553629 -0.8612854 0.5081091
vn -0.03543413 -0.7287269 0.6838871
vn -0.00424391 -0.9314634 0.3638102
vn 0.02694631 -0.9626537 0.2693914
vn -0.00424391 -0.9938439 -0.110708
vn 0.02694631 -0.9860464 -0.1642754
vn -0.01204145 -0.8378927 -0.5457022
vn -0.04323173 -0.7989049 -0.5999017
vn -0.05102932 -0.6273586 -0.7770568
vn -0.09001708 -0.5181926 -0.8505135
vn -0.09001708 -0.4792049 -0.8730748
vn 0.003553629 -0.003553629 0.9999874
vn 0.003553629 -0.003553629 0.9999874
vn 0.003553629 -0.003553629 0.9999874
vn 0.003553629 -0.003553629 0.9999874
vn -0.1056123 0.9321537 -0.3463171
vn -0.1056123 0.9321537 -0.3463171
vn -0.1056123 0.9321537 -0.3463171
vn -0.1056123 0.9321537 -0.3463171
vn 0.003553629 -0.003553629 -0.9999874
vn 0.003553629 -0.003553629 -0.9999874
vn 0.003553629 -0.003553629 -0.9999874
vn 0.003553629 -0.003553629 -0.9999874
vn 0.1280466 -0.9917682 0
vn 0.1280466 -0.9917682 0
vn 0.1280466 -0.9917682 0
vn 0.1280466 -0.9917682 0
vn 0.9938439 0.1056123 -0.03347106
vn 0.993552 0.1133765 0
vn 0.9938439 0.074422 -0.08207089
vn 0.9860464 0.074422 -0.148909
vn 0.9860464 0.1134098 -0.1218637
vn 0.1439098 -0.7365244 0.660925
vn 0.1439098 -0.7365244 0.660925
vn 0.1439098 -0.7365244 0.660925
vn 0.1439098 -0.7365244 0.660925
vn -0.9867367 -0.120517 0.1087495
vn -0.9867367 -0.1127195 0.1168123
vn -0.9867367 -0.1361122 0.08845495
vn -0.9867367 -0.1361122 0.08845495
vn -0.9867367 -0.1127195 0.1168123
vn -0.1368024 0.4409074 -0.8870658
vn -0.4798952 0.3473366 -0.8056412
vn -0.2303733 0.1368024 -0.9634382
vn -0.4798952 0.1368024 -0.8665943
vn -0.9009635 0.1368024 -0.4117642
vn -0.838583 0.3317416 -0.4321181
vn -0.4720976 0.05882692 -0.8795813
vn -0.2537659 0.05882692 -0.9654751
vn -0.4954903 0.03543413 -0.8678904
vn -0.269361 0.04323173 -0.9620684
vn -0.9165586 0.03543413 -0.3983274
vn -0.908761 0.05882692 -0.4131498
vn -0.9477489 0.02763665 0.3178179
vn -0.963344 0.05102932 0.2633712
vn -0.7762026 0.01983905 0.6301714
vn -0.784 0.04323173 0.6192535
vn -0.963344 0.1368024 0.2307671
vn -0.8541781 0.448705 0.2627617
vn -0.784 0.1056123 0.6117107
vn -0.784 0.3473366 0.5144911
vn 0.2530756 0.05882692 -0.9656563
vn 0.2686707 0.04323173 -0.9622614
vn 0.4948 0.03543413 -0.8682842
vn 0.4792049 0.05882692 -0.8757294
vn 0.9236659 0.03543413 -0.381557
vn 0.2296829 0.1368024 -0.9636031
vn 0.9158683 0.05882692 -0.3971457
vn 0.9470586 0.02763665 0.3198692
vn 0.4792049 0.1368024 -0.8669762
vn 0.9626537 0.05102932 0.2658832
vn 0.7755122 0.01983905 0.6310207
vn 0.7833098 0.04323173 0.6201265
vn 0.4792049 0.3473366 -0.8060521
vn 0.1361122 0.4409074 -0.887172
vn 0.9002732 0.1368024 -0.4132714
vn 0.8378927 0.3317416 -0.4334552
vn 0.9626537 0.1368024 0.23363
vn 0.7833098 0.1056123 0.6125944
vn 0.8534878 0.448705 0.2649952
vn 0.7833098 0.3473366 0.5155416
vn -0.02763665 -0.9236659 0.382201
vn -0.02763665 -0.9236659 0.382201
vn -0.02763665 -0.9236659 0.382201
vn -0.02763665 -0.9236659 0.382201
vn 0.01135117 0.9477489 -0.3188152
vn 0.01135117 0.9477489 -0.3188152
vn 0.01135117 0.9477489 -0.3188152
vn 0.01135117 0.9477489 -0.3188152
vn -0.1601951 0.2927537 0.9426732
vn -0.1601951 0.2927537 0.9426732
vn -0.1601951 0.2927537 0.9426732
vn -0.1601951 0.2927537 0.9426732
vn -0.9945343 -0.01914877 -0.1026399
vn -0.9945343 -0.01914877 -0.1026399
vn -0.9945343 -0.01914877 -0.1026399
vn -0.9945343 -0.01914877 -0.1026399
vn 0.9860464 0.05882692 0.1557303
vn 0.9860464 0.05882692 0.1557303
vn 0.9860464 0.05882692 0.1557303
vn 0.9860464 0.05882692 0.1557303
vn 0.03474385 0.6982269 -0.7150329
vn 0.03474385 0.7294171 -0.6831864
vn -0.00424391 0.8619757 -0.5069319
vn 0.003553629 0.9321537 -0.3620453
vn -0.02763665 0.963344 -0.2668419
vn 0.003553629 0.9945343 0.1043503
vn -0.02763665 0.9867367 0.1599594
vn 0.01135117 0.838583 0.5446556
vn 0.04254144 0.7995952 0.5990306
vn 0.05033898 0.6280489 0.776544
vn 0.0893268 0.518883 0.8501654
vn 0.0893268 0.4798952 0.8727664
vn 0.003553629 -0.003553629 0.9999874
vn 0.003553629 -0.003553629 0.9999874
vn 0.003553629 -0.003553629 0.9999874
vn 0.003553629 -0.003553629 0.9999874
vn 0.1049219 0.9321537 -0.3465268
vn 0.1049219 0.9321537 -0.3465268
vn 0.1049219 0.9321537 -0.3465268
vn 0.1049219 0.9321537 -0.3465268
vn 0.003553629 -0.003553629 -0.9999874
vn 0.003553629 -0.003553629 -0.9999874
vn 0.003553629 -0.003553629 -0.9999874
vn 0.003553629 -0.003553629 -0.9999874
vn -0.1287241 -0.9916804 0
vn -0.1287241 -0.9916804 0
vn -0.1287241 -0.9916804 0
vn -0.1287241 -0.9916804 0
vn -0.9944088 0.105599 0
vn -0.9945343 0.074422 -0.07323247
vn -0.993561 0.1132988 0
vn -0.9867367 0.074422 -0.1442642
vn -0.9867367 0.1134098 -0.1161423
vn -0.1446 -0.7365244 0.6607742
vn -0.1446 -0.7365244 0.6607742
vn -0.1446 -0.7365244 0.6607742
vn -0.1446 -0.7365244 0.6607742
vn 0.9860464 -0.120517 0.1148398
vn 0.9860464 -0.1361122 0.09584365
vn 0.9860464 -0.1127195 0.1225024
vn 0.9860464 -0.1361122 0.09584365
vn 0.9860464 -0.1127195 0.1225024
vn 0.3934317 0.908761 -0.1391578
vn 0.299861 0.8073927 0.5081342
vn 0.3232536 0.838583 0.4385039
vn 0.1828975 0.6592391 0.7293507
vn 0.3934317 0.9009635 -0.182965
vn 0.1906951 0.6670367 0.7202066
vn 0.003553629 0.6046562 0.7964786
vn 0.003553629 0.6046562 0.7964786
vn -0.1835878 0.6592391 0.7291772
vn -0.1913854 0.6670367 0.7200235
vn -0.3005513 0.8073927 0.5077262
vn -0.3161464 0.838583 0.4436553
vn 0.1984926 0.5734659 -0.7948191
vn -0.394122 0.908761 -0.1371905
vn -0.394122 0.9009635 -0.1814732
vn 0.3778366 0.768405 -0.5165204
vn 0.120517 0.4331098 -0.8932478
vn -0.1913854 0.5734659 -0.7965604
vn 0.003553629 0.3005513 -0.953759
vn 0.003553629 0.2381707 -0.9712168
vn -0.3785269 0.768405 -0.5160147
vn -0.1212074 0.4331098 -0.8931544
g trooperclone_arc_rex_mesh_0
f 3/3/3 2/2/2 1/1/1
f 4/4/4 2/2/2 3/3/3
f 5/5/5 4/4/4 3/3/3
f 6/6/6 5/5/5 3/3/3
f 4/4/4 7/7/7 2/2/2
f 7/7/7 8/8/8 2/2/2
f 7/7/7 9/9/9 8/8/8
f 9/9/9 10/10/10 8/8/8
f 11/11/11 9/9/9 7/7/7
f 12/12/12 7/7/7 4/4/4
f 12/12/12 11/11/11 7/7/7
f 5/5/5 12/12/12 4/4/4
f 13/13/13 11/11/11 12/12/12
f 14/14/14 13/13/13 12/12/12
f 14/14/14 12/12/12 5/5/5
f 15/15/15 13/13/13 14/14/14
f 16/16/16 15/15/15 14/14/14
f 17/17/17 5/5/5 6/6/6
f 17/17/17 14/14/14 5/5/5
f 16/16/16 14/14/14 17/17/17
f 18/18/18 17/17/17 6/6/6
f 19/19/19 16/16/16 17/17/17
f 20/20/20 17/17/17 18/18/18
f 19/19/19 17/17/17 20/20/20
f 23/23/23 22/22/22 21/21/21
f 22/22/22 24/24/24 21/21/21
f 22/22/22 25/25/25 24/24/24
f 21/21/21 24/24/24 26/26/26
f 25/25/25 27/27/27 24/24/24
f 25/25/25 28/28/28 27/27/27
f 24/24/24 29/29/29 26/26/26
f 24/24/24 27/27/27 29/29/29
f 28/28/28 30/30/30 27/27/27
f 28/28/28 31/31/31 30/30/30
f 31/31/31 32/32/32 30/30/30
f 29/29/29 33/33/33 26/26/26
f 26/26/26 33/33/33 34/34/34
f 27/27/27 35/35/35 29/29/29
f 29/29/29 35/35/35 33/33/33
f 27/27/27 30/30/30 35/35/35
f 35/35/35 36/36/36 33/33/33
f 30/30/30 32/32/32 37/37/37
f 30/30/30 37/37/37 35/35/35
f 35/35/35 37/37/37 36/36/36
f 32/32/32 38/38/38 37/37/37
f 37/37/37 39/39/39 36/36/36
f 38/38/38 40/40/40 37/37/37
f 37/37/37 40/40/40 39/39/39
f 43/43/43 42/42/42 41/41/41
f 44/44/44 42/42/42 43/43/43
f 45/45/45 42/42/42 44/44/44
f 44/44/44 46/46/46 45/45/45
f 46/46/46 47/47/47 45/45/45
f 46/46/46 48/48/48 47/47/47
f 49/49/49 48/48/48 46/46/46
f 48/48/48 49/49/49 50/50/50
f 50/50/50 49/49/49 51/51/51
f 50/50/50 51/51/51 52/52/52
f 55/55/55 54/54/54 53/53/53
f 56/56/56 55/55/55 53/53/53
f 59/59/59 58/58/58 57/57/57
f 60/60/60 59/59/59 57/57/57
f 63/63/63 62/62/62 61/61/61
f 64/64/64 63/63/63 61/61/61
f 67/67/67 66/66/66 65/65/65
f 68/68/68 67/67/67 65/65/65
f 71/71/71 70/70/70 69/69/69
f 71/71/71 69/69/69 72/72/72
f 69/69/69 73/73/73 72/72/72
f 76/76/76 75/75/75 74/74/74
f 77/77/77 76/76/76 74/74/74
f 80/80/80 79/79/79 78/78/78
f 81/81/81 80/80/80 78/78/78
f 81/81/81 78/78/78 82/82/82
f 85/85/85 84/84/84 83/83/83
f 85/85/85 86/86/86 84/84/84
f 86/86/86 87/87/87 84/84/84
f 87/87/87 88/88/88 84/84/84
f 89/89/89 86/86/86 85/85/85
f 90/90/90 89/89/89 85/85/85
f 91/91/91 89/89/89 90/90/90
f 92/92/92 91/91/91 90/90/90
f 91/91/91 93/93/93 89/89/89
f 89/89/89 94/94/94 86/86/86
f 93/93/93 94/94/94 89/89/89
f 94/94/94 87/87/87 86/86/86
f 93/93/93 95/95/95 94/94/94
f 95/95/95 96/96/96 94/94/94
f 94/94/94 96/96/96 87/87/87
f 95/95/95 97/97/97 96/96/96
f 97/97/97 98/98/98 96/96/96
f 87/87/87 99/99/99 88/88/88
f 96/96/96 99/99/99 87/87/87
f 96/96/96 98/98/98 99/99/99
f 99/99/99 100/100/100 88/88/88
f 98/98/98 101/101/101 99/99/99
f 99/99/99 102/102/102 100/100/100
f 99/99/99 101/101/101 102/102/102
f 105/105/105 104/104/104 103/103/103
f 106/106/106 105/105/105 103/103/103
f 107/107/107 105/105/105 106/106/106
f 106/106/106 103/103/103 108/108/108
f 109/109/109 107/107/107 106/106/106
f 110/110/110 107/107/107 109/109/109
f 111/111/111 106/106/106 108/108/108
f 109/109/109 106/106/106 111/111/111
f 112/112/112 110/110/110 109/109/109
f 113/113/113 110/110/110 112/112/112
f 114/114/114 113/113/113 112/112/112
f 115/115/115 111/111/111 108/108/108
f 115/115/115 108/108/108 116/116/116
f 117/117/117 109/109/109 111/111/111
f 117/117/117 111/111/111 115/115/115
f 112/112/112 109/109/109 117/117/117
f 118/118/118 117/117/117 115/115/115
f 114/114/114 112/112/112 119/119/119
f 119/119/119 112/112/112 117/117/117
f 119/119/119 117/117/117 118/118/118
f 120/120/120 114/114/114 119/119/119
f 121/121/121 119/119/119 118/118/118
f 122/122/122 120/120/120 119/119/119
f 122/122/122 119/119/119 121/121/121
f 125/125/125 124/124/124 123/123/123
f 126/126/126 125/125/125 123/123/123
f 129/129/129 128/128/128 127/127/127
f 130/130/130 129/129/129 127/127/127
f 133/133/133 132/132/132 131/131/131
f 134/134/134 133/133/133 131/131/131
f 137/137/137 136/136/136 135/135/135
f 138/138/138 137/137/137 135/135/135
f 141/141/141 140/140/140 139/139/139
f 142/142/142 141/141/141 139/139/139
f 145/145/145 144/144/144 143/143/143
f 145/145/145 146/146/146 144/144/144
f 145/145/145 147/147/147 146/146/146
f 148/148/148 146/146/146 147/147/147
f 149/149/149 148/148/148 147/147/147
f 150/150/150 148/148/148 149/149/149
f 150/150/150 151/151/151 148/148/148
f 151/151/151 150/150/150 152/152/152
f 151/151/151 152/152/152 153/153/153
f 153/153/153 152/152/152 154/154/154
f 157/157/157 156/156/156 155/155/155
f 158/158/158 157/157/157 155/155/155
f 161/161/161 160/160/160 159/159/159
f 162/162/162 161/161/161 159/159/159
f 165/165/165 164/164/164 163/163/163
f 166/166/166 165/165/165 163/163/163
f 169/169/169 168/168/168 167/167/167
f 170/170/170 169/169/169 167/167/167
f 173/173/173 172/172/172 171/171/171
f 171/171/171 172/172/172 174/174/174
f 175/175/175 171/171/171 174/174/174
f 178/178/178 177/177/177 176/176/176
f 179/179/179 178/178/178 176/176/176
f 182/182/182 181/181/181 180/180/180
f 181/181/181 183/183/183 180/180/180
f 180/180/180 183/183/183 184/184/184
f 187/187/187 186/186/186 185/185/185
f 186/186/186 187/187/187 188/188/188
f 189/189/189 187/187/187 185/185/185
f 187/187/187 190/190/190 188/188/188
f 188/188/188 190/190/190 191/191/191
f 190/190/190 192/192/192 191/191/191
f 191/191/191 192/192/192 193/193/193
f 192/192/192 194/194/194 193/193/193
f 193/193/193 194/194/194 195/195/195
f 194/194/194 196/196/196 195/195/195
f 189/189/189 185/185/185 197/197/197
f 195/195/195 196/196/196 198/198/198
f 196/196/196 199/199/199 198/198/198
f 185/185/185 200/200/200 197/197/197
f 200/200/200 201/201/201 197/197/197
f 199/199/199 202/202/202 198/198/198
f 203/203/203 197/197/197 201/201/201
f 204/204/204 197/197/197 203/203/203
f 204/204/204 203/203/203 202/202/202
f 202/202/202 205/205/205 198/198/198
f 203/203/203 206/206/206 202/202/202
f 205/205/205 202/202/202 206/206/206
