g trooperclone_phase1_mesh
v -0.0137074 1.852212 -0.07268129
v -0.01342508 1.889258 -0.09037308
v -0.01351918 1.862689 -0.002227768
v -0.01314276 1.896222 -0.006117448
v -0.01292318 1.910526 -0.1169422
v -0.01317413 1.897696 -0.1179773
v -0.01323688 1.865387 0.05988175
v -0.01342508 1.813346 0.0990923
v 6.109476E-07 1.811746 -0.1022304
v 0.01370862 1.852212 -0.07268129
v -0.0137074 1.852212 -0.07268129
v -0.05279247 1.815228 -0.08102529
v 6.109476E-07 1.775139 -0.1107939
v 0.0527937 1.815228 -0.08102529
v 0.01370862 1.852212 -0.07268129
v -0.08027123 1.819557 -0.03641937
v -0.05608617 1.849294 -0.004235342
v -0.08224745 1.816546 0.0250314
v -0.01351918 1.862689 -0.002227768
v -0.04137437 1.815354 0.08679587
v -0.01342508 1.813346 0.0990923
v -0.09187755 1.77285 -0.04306948
v -0.05884659 1.77285 -0.09106319
v -0.09018366 1.796846 -0.03127494
v -0.0188832 1.761463 0.1082832
v -0.06449291 1.796941 0.07286829
v 6.109476E-07 1.760773 0.1097262
v -0.01452298 1.70202 0.1065266
v 0.0134263 1.813346 0.0990923
v -0.07280554 1.763251 0.0702647
v -0.09435566 1.666071 -0.06069855
v -0.06533985 1.67407 -0.1106057
v -0.1072481 1.771532 -0.03585473
v -0.09350872 1.763282 0.02148677
v -0.09140703 1.788753 0.01436614
v -0.1064952 1.79302 -0.02421705
v -0.1065894 1.787216 0.00561434
v -0.1073422 1.762623 0.01411518
v -0.09388514 1.71281 0.02183183
v -0.1076245 1.665475 -0.05282506
v -0.0761306 1.696656 0.06452428
v -0.1076245 1.655563 -0.004423559
v -0.1169723 1.633981 -0.06301981
v -0.1187603 1.622877 -0.001318082
v -0.07609923 1.639126 -0.1173186
v -0.09325777 1.607193 -0.05972612
v -0.08698408 1.663876 0.008625716
v -0.07876554 1.695275 0.02387078
v -0.06650048 1.682571 0.05404721
v -0.09614366 1.649917 0.003889084
v -0.04890279 1.674415 0.08717228
v -0.06879038 1.655155 0.04931058
v -0.05047122 1.6241 0.09316367
v -0.04526405 1.667044 0.07870281
v -0.08002028 1.636083 0.04858911
v -0.1059933 1.610675 0.04366426
v -0.09448114 1.598284 -0.003702089
v -0.08362766 1.589281 0.02644299
v 6.109476E-07 1.61447 -0.009818926
v -0.06254806 1.612149 -0.1056495
v -0.05229059 1.575542 0.06217164
v 6.109476E-07 1.614345 -0.128423
v -0.07032743 1.594928 0.08340807
v 6.109476E-07 1.575636 0.1349151
v 6.109476E-07 1.563214 0.104174
v 6.109476E-07 1.640945 -0.1452051
v 0.0522918 1.575542 0.06217164
v 6.109476E-07 1.675262 -0.1319049
v 0.06534107 1.67407 -0.1106057
v 0.07610045 1.639126 -0.1173186
v 0.05884781 1.77285 -0.09106319
v 0.09435688 1.666071 -0.06069855
v 0.09187877 1.77285 -0.04306948
v 0.06254928 1.612149 -0.1056495
v 0.09325898 1.607193 -0.05972612
v 0.08027245 1.819557 -0.03641937
v 0.1169735 1.633981 -0.06301981
v 0.05608738 1.849294 -0.004235342
v 0.0135204 1.862689 -0.002227768
v 0.04137558 1.815354 0.08679587
v 0.0134263 1.813346 0.0990923
v 0.08224867 1.816546 0.0250314
v 0.01888441 1.761463 0.1082832
v 0.01452419 1.70202 0.1065266
v 0.06449413 1.796941 0.07286829
v 0.07280676 1.763251 0.0702647
v 6.109476E-07 1.700388 0.1079068
v 6.109476E-07 1.674102 0.1070913
v 0.05047243 1.6241 0.09316367
v 6.109476E-07 1.630154 0.1192309
v 0.07032865 1.594928 0.08340807
v 0.08362888 1.589281 0.02644299
v 0.1059946 1.610675 0.04366426
v 0.09448235 1.598284 -0.003702089
v 0.1187615 1.622877 -0.001318082
v 0.1076257 1.665475 -0.05282506
v 0.1072493 1.771532 -0.03585473
v 0.09018488 1.796846 -0.03127494
v 0.09140825 1.788753 0.01436614
v 0.09350993 1.763282 0.02148677
v 0.09614488 1.649917 0.003889084
v 0.1076257 1.655563 -0.004423559
v 0.1073434 1.762623 0.01411518
v 0.1065906 1.787216 0.00561434
v 0.1064965 1.79302 -0.02421705
v 0.09388635 1.71281 0.02183183
v 0.0800215 1.636083 0.04858911
v 0.0869853 1.663876 0.008625716
v 0.0687916 1.655155 0.04931058
v 0.07613182 1.696656 0.06452428
v 0.04887264 1.674415 0.08717228
v 0.04526527 1.667044 0.07870281
v 0.06650171 1.682571 0.05404721
v 0.07876676 1.695275 0.02387078
v -0.01317413 1.897696 -0.1179773
v 0.0129244 1.910526 -0.1169422
v -0.01292318 1.910526 -0.1169422
v 0.01317535 1.897696 -0.1179773
v 0.0134263 1.889258 -0.09037308
v -0.01342508 1.889258 -0.09037308
v -0.0137074 1.852212 -0.07268129
v 0.01370862 1.852212 -0.07268129
v 0.0135204 1.862689 -0.002227768
v 0.01311262 1.896222 -0.006117448
v -0.01292318 1.910526 -0.1169422
v -0.01314276 1.896222 -0.006117448
v -0.01323688 1.865387 0.05988175
v 0.01320672 1.865387 0.05988175
v 0.0134263 1.813346 0.0990923
v -0.01342508 1.813346 0.0990923
v -0.01791076 1.761808 -0.1237177
v 0.008281872 1.744712 -0.1084413
v 0.007309452 1.753872 -0.1258508
v -0.02205141 1.754248 -0.1058691
v -0.01791076 1.787405 -0.1168481
v -0.02205141 1.785021 -0.0976192
v 0.007309452 1.795309 -0.1147464
v 0.008281872 1.794556 -0.09507836
v 0.02289957 1.774606 -0.1202986
v 0.02700884 1.769619 -0.1017598
v 0.007309452 1.753872 -0.1258508
v 0.008281872 1.744712 -0.1084413
v 0.007309452 1.795309 -0.1147464
v 0.0003456622 1.774606 -0.1202986
v 0.02289957 1.774606 -0.1202986
v -0.01791076 1.787405 -0.1168481
v 0.007309452 1.753872 -0.1258508
v -0.01791076 1.761808 -0.1237177
vt 0.561314 0.7405127
vt 0.5488563 0.7318882
vt 0.5316072 0.8075925
vt 0.510525 0.8037593
vt 0.5210661 0.7002649
vt 0.5344821 0.7165557
vt 0.5133998 0.8593397
vt 0.5316072 0.8967127
vt 0.01700979 0.8976709
vt 0.01700979 0.965709
vt 0.06684045 0.9618759
vt 0.1032552 0.8928795
vt 0.01700979 0.8459237
vt 0.1032552 0.8928795
vt 0.06684045 0.9618759
vt 0.1818343 0.8919212
vt 0.2354981 0.952293
vt 0.2652048 0.8928795
vt 0.2479558 0.9973323
vt 0.4022391 0.9101286
vt 0.4405704 0.9072537
vt 0.1799177 0.8210084
vt 0.1022969 0.8420906
vt 0.194292 0.85359
vt 0.4329042 0.8334661
vt 0.3696576 0.8852133
vt 0.4578195 0.8325078
vt 0.4386539 0.75872
vt 0.4760269 0.9072537
vt 0.361033 0.8372992
vt 0.1818343 0.7223054
vt 0.1090049 0.728055
vt 0.1981251 0.8190918
vt 0.2680797 0.8238832
vt 0.2546637 0.85359
vt 0.2086662 0.8411323
vt 0.2393312 0.8420906
vt 0.2527472 0.8181335
vt 0.2699962 0.7893851
vt 0.1962085 0.721347
vt 0.3485754 0.7692611
vt 0.2575386 0.7136808
vt 0.1904588 0.6878072
vt 0.2584969 0.6791826
vt 0.112838 0.6887655
vt 0.1885423 0.6485176
vt 0.2728711 0.7203888
vt 0.2891619 0.765428
vt 0.3437839 0.748179
vt 0.2699962 0.7098477
vt 0.3830735 0.7127225
vt 0.337076 0.7079311
vt 0.405114 0.6724747
vt 0.3773238 0.7060145
vt 0.3227018 0.6964317
vt 0.3246183 0.6648084
vt 0.2594551 0.6466011
vt 0.3207852 0.6331851
vt 0.224957 0.554606
vt 0.1118797 0.6513925
vt 0.3773238 0.6044366
vt 0.01700979 0.6542673
vt 0.3821152 0.6408514
vt 0.4578195 0.6168943
vt 0.4578195 0.5699385
vt 0.01700979 0.6925986
vt 0.3773238 0.6044366
vt 0.01700979 0.7328464
vt 0.1090049 0.728055
vt 0.112838 0.6887655
vt 0.1022969 0.8420906
vt 0.1818343 0.7223054
vt 0.1799177 0.8210084
vt 0.1118797 0.6513925
vt 0.1885423 0.6485176
vt 0.1818343 0.8919212
vt 0.1904588 0.6878072
vt 0.2354981 0.952293
vt 0.2479558 0.9973323
vt 0.4022391 0.9101286
vt 0.4405704 0.9072537
vt 0.2652048 0.8928795
vt 0.4329042 0.8334661
vt 0.4386539 0.75872
vt 0.3696576 0.8852133
vt 0.361033 0.8372992
vt 0.4674023 0.7558452
vt 0.4654858 0.7251801
vt 0.405114 0.6724747
vt 0.4654858 0.6810992
vt 0.3821152 0.6408514
vt 0.3207852 0.6331851
vt 0.3246183 0.6648084
vt 0.2594551 0.6466011
vt 0.2584969 0.6791826
vt 0.1962085 0.721347
vt 0.1981251 0.8190918
vt 0.194292 0.85359
vt 0.2546637 0.85359
vt 0.2680797 0.8238832
vt 0.2699962 0.7098477
vt 0.2575386 0.7136808
vt 0.2527472 0.8181335
vt 0.2393312 0.8420906
vt 0.2086662 0.8411323
vt 0.2699962 0.7893851
vt 0.3227018 0.6964317
vt 0.2728711 0.7203888
vt 0.337076 0.7079311
vt 0.3485754 0.7692611
vt 0.3830735 0.7127225
vt 0.3773238 0.7060145
vt 0.3437839 0.748179
vt 0.2891619 0.765428
vt 0.5517312 0.6983483
vt 0.5210661 0.7002649
vt 0.5373569 0.6849324
vt 0.5344821 0.7165557
vt 0.5488563 0.7318882
vt 0.5651471 0.7127225
vt 0.5756882 0.721347
vt 0.561314 0.7405127
vt 0.5316072 0.8075925
vt 0.510525 0.8037593
vt 0.4961508 0.6983483
vt 0.4875262 0.8037593
vt 0.4932759 0.8660476
vt 0.5133998 0.8593397
vt 0.5316072 0.8967127
vt 0.5114833 0.9062955
vt 0.4942342 0.04192512
vt 0.4702772 0.0218012
vt 0.4702772 0.04192512
vt 0.4942342 0.0218012
vt 0.5229827 0.04192512
vt 0.5229827 0.0218012
vt 0.5555643 0.04192512
vt 0.5555643 0.0218012
vt 0.5862293 0.04192512
vt 0.5862293 0.0218012
vt 0.6178526 0.04192512
vt 0.6178526 0.0218012
vt 0.6312686 0.6590587
vt 0.6207274 0.6906821
vt 0.6542673 0.6906821
vt 0.5938956 0.6715164
vt 0.6312686 0.7232636
vt 0.5938956 0.710806
vn -0.6729202 0.5024181 -0.542913
vn -0.9519234 -0.2028401 -0.2295598
vn -0.7814214 0.6186696 0.08141623
vn -0.6806702 0.7039205 0.2029383
vn -0.3009158 0.9519234 0.05737149
vn -0.4171671 -0.7143461 -0.5618551
vn -0.8279219 0.4404175 0.347243
vn -0.2854156 0.5566688 0.7801653
vn 0.001337767 0.3706666 -0.9287651
vn 0.6755956 0.5024181 -0.53958
vn -0.6729202 0.5024181 -0.542913
vn -0.572169 0.4636677 -0.6764871
vn 0.001337767 0.2234148 -0.9747226
vn 0.5670944 0.4636677 -0.6807469
vn 0.6755956 0.5024181 -0.53958
vn -0.742671 0.5954192 -0.3064568
vn -0.4946681 0.8666725 0.064671
vn -0.7659213 0.572169 0.2932357
vn -0.7814214 0.6186696 0.08141623
vn -0.4016669 0.6806702 0.6126596
vn -0.2854156 0.5566688 0.7801653
vn -0.7504211 0.1769144 -0.6368434
vn -0.6031694 0.2001646 -0.7720886
vn -0.8511723 0.4869179 -0.1960019
vn -0.4481675 0.01416248 0.8938374
vn -0.7271708 0.2466652 0.6406083
vn 0.001337767 0.06841308 0.9976562
vn -0.4481675 -0.02458805 0.8936114
vn 0.2880911 0.5566688 0.7791812
vn -0.7504211 0.0374127 0.6599004
vn -0.7814214 0.2466652 -0.5731814
vn -0.5954192 0.231165 -0.7694405
vn -0.9596735 0.07616311 -0.270603
vn -0.8666725 0.0916633 0.4903842
vn -0.8666725 0.4171671 0.2735881
vn -0.7891715 0.5876692 -0.1784746
vn -0.8356721 0.4946681 0.2386539
vn -0.9829238 0.01416248 0.1834672
vn -0.8356721 -0.109839 0.5381334
vn -0.9751737 0.1226637 -0.1843636
vn -0.7504211 -0.1020889 0.6530284
vn -0.9829238 0.06066293 0.1737263
vn -0.9286731 -0.1330893 -0.3461986
vn -0.9751737 -0.1795899 0.1295523
vn -0.6109194 -0.04008818 -0.7906772
vn -0.1691642 -0.9700991 -0.1740437
vn -0.7194207 -0.03233814 0.6938213
vn -0.8279219 -0.3190915 0.4612222
vn -0.8821726 -0.280341 0.3783918
vn -0.7194207 0.4714178 0.5100971
vn -0.6496698 0.04516274 0.7588738
vn -0.8279219 0.2234148 0.5144231
vn -0.579919 0.2079147 0.7876962
vn -0.9286731 0.05291289 0.3671055
vn -0.6884204 0.5179183 0.5077776
vn -0.8899227 -0.09433883 0.4462486
vn -0.1381639 -0.9700991 -0.1995457
vn -0.145914 -0.962349 -0.2293328
vn 0.001337767 -0.9778492 -0.2093064
vn -0.09941345 -0.9700991 -0.2214152
vn -0.0916633 -0.9700991 -0.2247345
vn 0.001337767 -0.9545989 -0.2978912
vn -0.6884204 -0.3733421 0.6218465
vn 0.001337767 -0.3113414 0.9502972
vn 0.001337767 -0.9933494 -0.1151314
vn 0.001337767 -0.07883865 -0.9968865
vn 0.08658874 -0.9700991 -0.226738
vn 0.001337767 0.2544152 -0.9670942
vn 0.5980947 0.231165 -0.7673627
vn 0.6058449 -0.04008818 -0.7945722
vn 0.6058449 0.2001646 -0.769991
vn 0.7763468 0.2466652 -0.5800362
vn 0.7530966 0.1769144 -0.6336772
vn 0.09433883 -0.9700991 -0.2236246
vn 0.1718398 -0.9700991 -0.1714025
vn 0.7453465 0.5876692 -0.3148071
vn 0.9235985 -0.1330893 -0.3595177
vn 0.4973436 0.8666725 0.03909224
vn 0.784097 0.6186696 0.04939581
vn 0.4043425 0.6806702 0.6108971
vn 0.2880911 0.5566688 0.7791812
vn 0.7763468 0.5644189 0.2805655
vn 0.450843 0.01416248 0.8924909
vn 0.450843 -0.02458805 0.8922645
vn 0.7298463 0.2466652 0.6375583
vn 0.7530966 0.0374127 0.6568454
vn 0.001337767 -0.03233814 0.9994761
vn 0.001337767 0.0374127 0.999299
vn 0.5825946 0.2079147 0.7857195
vn 0.001337767 0.2699154 0.9628831
vn 0.6833457 -0.3733421 0.6274188
vn 0.1408394 -0.962349 -0.2324838
vn 0.8925982 -0.09433883 0.4408726
vn 0.1408394 -0.9700991 -0.1976665
vn 0.9778492 -0.1795899 0.1075102
vn 0.9700991 0.1226637 -0.2094311
vn 0.962349 0.07616311 -0.2609284
vn 0.8228474 0.5256684 -0.2158586
vn 0.877098 0.4326673 0.2085619
vn 0.8693479 0.0916633 0.4856254
vn 0.7143461 0.4714178 0.5171797
vn 0.9778492 0.06066293 0.2003272
vn 0.9855993 0.01416248 0.1685037
vn 0.8383476 0.4946681 0.2290783
vn 0.791847 0.5876692 -0.1662024
vn 0.8383476 -0.109839 0.5339558
vn 0.6910958 0.5179183 0.5041301
vn 0.7220962 -0.03233814 0.6910364
vn 0.8305975 0.2234148 0.5100918
vn 0.7530966 -0.1020889 0.6499411
vn 0.6523454 0.04516274 0.756575
vn 0.9235985 0.05291289 0.3796919
vn 0.8848481 -0.280341 0.3720924
vn 0.8305975 -0.3190915 0.4563864
vn -0.4171671 -0.7143461 -0.5618551
vn 0.2958412 0.9519234 0.07949693
vn -0.3009158 0.9519234 0.05737149
vn 0.4198427 -0.706596 -0.5696088
vn 0.9545989 -0.2028401 -0.218167
vn -0.9519234 -0.2028401 -0.2295598
vn -0.6729202 0.5024181 -0.542913
vn 0.6755956 0.5024181 -0.53958
vn 0.784097 0.6186696 0.04939581
vn 0.6833457 0.7039205 0.1937382
vn -0.3009158 0.9519234 0.05737149
vn -0.6806702 0.7039205 0.2029383
vn -0.8279219 0.4404175 0.347243
vn 0.8228474 0.4404175 0.3591026
vn 0.2880911 0.5566688 0.7791812
vn -0.2854156 0.5566688 0.7801653
vn -0.5876692 -0.2880911 -0.7560744
vn 0.3268416 -0.8305975 -0.4508686
vn 0.2725909 -0.5283439 -0.8040814
vn -0.7659213 -0.5128437 -0.3877575
vn -0.6341696 0.572169 -0.5200495
vn -0.8046717 0.579919 -0.1272687
vn 0.2105902 0.8744225 -0.4370779
vn 0.2568335 0.9664556 0
vn 0.7685968 0.2001646 -0.6076127
vn 0.9778492 0.0916633 -0.1881723
vn 0.2725909 -0.5283439 -0.8040814
vn 0.3268416 -0.8305975 -0.4508686
vn 0.2105902 0.8744225 -0.4370779
vn 0.001337767 0.2621654 -0.965022
vn 0.7685968 0.2001646 -0.6076127
vn -0.6341696 0.572169 -0.5200495
vn 0.2725909 -0.5283439 -0.8040814
vn -0.5876692 -0.2880911 -0.7560744
g trooperclone_phase1_mesh_0
f 3/3/3 2/2/2 1/1/1
f 3/3/3 4/4/4 2/2/2
f 4/4/4 5/5/5 2/2/2
f 5/5/5 6/6/6 2/2/2
f 4/4/4 3/3/3 7/7/7
f 8/8/8 7/7/7 3/3/3
f 11/11/11 10/10/10 9/9/9
f 12/12/12 11/11/11 9/9/9
f 9/9/9 13/13/13 12/12/12
f 9/9/9 14/14/14 13/13/13
f 15/15/15 14/14/14 9/9/9
f 12/12/12 16/16/16 11/11/11
f 17/17/17 11/11/11 16/16/16
f 17/17/17 16/16/16 18/18/18
f 19/19/19 11/11/11 17/17/17
f 17/17/17 20/20/20 19/19/19
f 17/17/17 18/18/18 20/20/20
f 21/21/21 19/19/19 20/20/20
f 16/16/16 12/12/12 22/22/22
f 23/23/23 12/12/12 13/13/13
f 23/23/23 22/22/22 12/12/12
f 16/16/16 24/24/24 18/18/18
f 22/22/22 24/24/24 16/16/16
f 21/21/21 20/20/20 25/25/25
f 26/26/26 20/20/20 18/18/18
f 26/26/26 25/25/25 20/20/20
f 25/25/25 27/27/27 21/21/21
f 25/25/25 28/28/28 27/27/27
f 27/27/27 29/29/29 21/21/21
f 25/25/25 26/26/26 30/30/30
f 26/26/26 18/18/18 30/30/30
f 25/25/25 30/30/30 28/28/28
f 22/22/22 23/23/23 31/31/31
f 23/23/23 13/13/13 32/32/32
f 32/32/32 31/31/31 23/23/23
f 22/22/22 33/33/33 24/24/24
f 22/22/22 31/31/31 33/33/33
f 34/34/34 30/30/30 18/18/18
f 35/35/35 18/18/18 24/24/24
f 18/18/18 35/35/35 34/34/34
f 36/36/36 24/24/24 33/33/33
f 36/36/36 37/37/37 24/24/24
f 35/35/35 24/24/24 37/37/37
f 36/36/36 33/33/33 37/37/37
f 37/37/37 38/38/38 35/35/35
f 34/34/34 35/35/35 38/38/38
f 38/38/38 37/37/37 33/33/33
f 34/34/34 39/39/39 30/30/30
f 34/34/34 38/38/38 39/39/39
f 33/33/33 40/40/40 38/38/38
f 40/40/40 33/33/33 31/31/31
f 41/41/41 30/30/30 39/39/39
f 41/41/41 28/28/28 30/30/30
f 42/42/42 38/38/38 40/40/40
f 38/38/38 42/42/42 39/39/39
f 31/31/31 43/43/43 40/40/40
f 42/42/42 40/40/40 44/44/44
f 43/43/43 44/44/44 40/40/40
f 43/43/43 31/31/31 45/45/45
f 32/32/32 45/45/45 31/31/31
f 43/43/43 46/46/46 44/44/44
f 43/43/43 45/45/45 46/46/46
f 47/47/47 39/39/39 42/42/42
f 39/39/39 48/48/48 41/41/41
f 47/47/47 48/48/48 39/39/39
f 49/49/49 41/41/41 48/48/48
f 48/48/48 47/47/47 49/49/49
f 42/42/42 50/50/50 47/47/47
f 50/50/50 42/42/42 44/44/44
f 41/41/41 51/51/51 28/28/28
f 41/41/41 49/49/49 51/51/51
f 52/52/52 49/49/49 47/47/47
f 47/47/47 50/50/50 52/52/52
f 28/28/28 51/51/51 53/53/53
f 51/51/51 54/54/54 53/53/53
f 54/54/54 52/52/52 53/53/53
f 54/54/54 51/51/51 49/49/49
f 52/52/52 54/54/54 49/49/49
f 55/55/55 52/52/52 50/50/50
f 55/55/55 53/53/53 52/52/52
f 55/55/55 50/50/50 56/56/56
f 44/44/44 56/56/56 50/50/50
f 55/55/55 56/56/56 53/53/53
f 44/44/44 57/57/57 56/56/56
f 57/57/57 44/44/44 46/46/46
f 58/58/58 56/56/56 57/57/57
f 46/46/46 59/59/59 57/57/57
f 57/57/57 59/59/59 58/58/58
f 60/60/60 59/59/59 46/46/46
f 58/58/58 59/59/59 61/61/61
f 62/62/62 59/59/59 60/60/60
f 60/60/60 46/46/46 45/45/45
f 60/60/60 45/45/45 62/62/62
f 56/56/56 58/58/58 63/63/63
f 63/63/63 53/53/53 56/56/56
f 61/61/61 63/63/63 58/58/58
f 63/63/63 61/61/61 64/64/64
f 53/53/53 63/63/63 64/64/64
f 61/61/61 59/59/59 65/65/65
f 65/65/65 64/64/64 61/61/61
f 66/66/66 62/62/62 45/45/45
f 45/45/45 32/32/32 66/66/66
f 59/59/59 67/67/67 65/65/65
f 65/65/65 67/67/67 64/64/64
f 68/68/68 66/66/66 32/32/32
f 68/68/68 32/32/32 13/13/13
f 68/68/68 69/69/69 66/66/66
f 68/68/68 13/13/13 69/69/69
f 66/66/66 70/70/70 62/62/62
f 70/70/70 66/66/66 69/69/69
f 71/71/71 69/69/69 13/13/13
f 71/71/71 13/13/13 14/14/14
f 69/69/69 71/71/71 72/72/72
f 69/69/69 72/72/72 70/70/70
f 71/71/71 14/14/14 73/73/73
f 73/73/73 72/72/72 71/71/71
f 59/59/59 62/62/62 74/74/74
f 74/74/74 62/62/62 70/70/70
f 74/74/74 70/70/70 75/75/75
f 59/59/59 74/74/74 75/75/75
f 76/76/76 73/73/73 14/14/14
f 14/14/14 15/15/15 76/76/76
f 77/77/77 70/70/70 72/72/72
f 77/77/77 75/75/75 70/70/70
f 78/78/78 76/76/76 15/15/15
f 15/15/15 79/79/79 78/78/78
f 78/78/78 79/79/79 80/80/80
f 81/81/81 80/80/80 79/79/79
f 76/76/76 78/78/78 82/82/82
f 78/78/78 80/80/80 82/82/82
f 81/81/81 83/83/83 80/80/80
f 27/27/27 83/83/83 81/81/81
f 83/83/83 27/27/27 84/84/84
f 85/85/85 80/80/80 83/83/83
f 85/85/85 82/82/82 80/80/80
f 85/85/85 83/83/83 86/86/86
f 83/83/83 84/84/84 86/86/86
f 85/85/85 86/86/86 82/82/82
f 87/87/87 84/84/84 27/27/27
f 87/87/87 27/27/27 28/28/28
f 87/87/87 28/28/28 88/88/88
f 87/87/87 88/88/88 84/84/84
f 53/53/53 88/88/88 28/28/28
f 89/89/89 84/84/84 88/88/88
f 89/89/89 88/88/88 90/90/90
f 88/88/88 53/53/53 90/90/90
f 89/89/89 90/90/90 64/64/64
f 53/53/53 64/64/64 90/90/90
f 89/89/89 64/64/64 91/91/91
f 91/91/91 64/64/64 67/67/67
f 67/67/67 92/92/92 91/91/91
f 59/59/59 92/92/92 67/67/67
f 93/93/93 91/91/91 92/92/92
f 91/91/91 93/93/93 89/89/89
f 59/59/59 94/94/94 92/92/92
f 92/92/92 94/94/94 93/93/93
f 59/59/59 75/75/75 94/94/94
f 94/94/94 75/75/75 95/95/95
f 95/95/95 93/93/93 94/94/94
f 77/77/77 95/95/95 75/75/75
f 77/77/77 96/96/96 95/95/95
f 77/77/77 72/72/72 96/96/96
f 96/96/96 72/72/72 97/97/97
f 73/73/73 97/97/97 72/72/72
f 73/73/73 98/98/98 97/97/97
f 98/98/98 73/73/73 76/76/76
f 98/98/98 76/76/76 99/99/99
f 82/82/82 99/99/99 76/76/76
f 99/99/99 82/82/82 100/100/100
f 100/100/100 82/82/82 86/86/86
f 95/95/95 101/101/101 93/93/93
f 102/102/102 95/95/95 96/96/96
f 102/102/102 101/101/101 95/95/95
f 97/97/97 103/103/103 96/96/96
f 102/102/102 96/96/96 103/103/103
f 100/100/100 103/103/103 99/99/99
f 99/99/99 104/104/104 98/98/98
f 104/104/104 99/99/99 103/103/103
f 103/103/103 97/97/97 104/104/104
f 105/105/105 98/98/98 104/104/104
f 105/105/105 97/97/97 98/98/98
f 105/105/105 104/104/104 97/97/97
f 103/103/103 100/100/100 106/106/106
f 100/100/100 86/86/86 106/106/106
f 103/103/103 106/106/106 102/102/102
f 107/107/107 93/93/93 101/101/101
f 107/107/107 89/89/89 93/93/93
f 101/101/101 102/102/102 108/108/108
f 108/108/108 102/102/102 106/106/106
f 107/107/107 101/101/101 109/109/109
f 107/107/107 109/109/109 89/89/89
f 108/108/108 109/109/109 101/101/101
f 110/110/110 106/106/106 86/86/86
f 110/110/110 86/86/86 84/84/84
f 111/111/111 84/84/84 89/89/89
f 111/111/111 110/110/110 84/84/84
f 112/112/112 89/89/89 109/109/109
f 112/112/112 111/111/111 89/89/89
f 112/112/112 109/109/109 113/113/113
f 112/112/112 113/113/113 111/111/111
f 109/109/109 108/108/108 113/113/113
f 110/110/110 111/111/111 113/113/113
f 114/114/114 108/108/108 106/106/106
f 114/114/114 113/113/113 108/108/108
f 113/113/113 114/114/114 110/110/110
f 106/106/106 110/110/110 114/114/114
f 117/117/117 116/116/116 115/115/115
f 118/118/118 115/115/115 116/116/116
f 118/118/118 119/119/119 115/115/115
f 118/118/118 116/116/116 119/119/119
f 120/120/120 115/115/115 119/119/119
f 120/120/120 119/119/119 121/121/121
f 122/122/122 121/121/121 119/119/119
f 119/119/119 123/123/123 122/122/122
f 116/116/116 124/124/124 119/119/119
f 124/124/124 123/123/123 119/119/119
f 116/116/116 125/125/125 124/124/124
f 126/126/126 124/124/124 125/125/125
f 126/126/126 127/127/127 124/124/124
f 124/124/124 128/128/128 123/123/123
f 128/128/128 124/124/124 127/127/127
f 129/129/129 123/123/123 128/128/128
f 127/127/127 130/130/130 128/128/128
f 129/129/129 128/128/128 130/130/130
f 133/133/133 132/132/132 131/131/131
f 134/134/134 131/131/131 132/132/132
f 131/131/131 134/134/134 135/135/135
f 136/136/136 135/135/135 134/134/134
f 135/135/135 136/136/136 137/137/137
f 138/138/138 137/137/137 136/136/136
f 137/137/137 138/138/138 139/139/139
f 140/140/140 139/139/139 138/138/138
f 139/139/139 140/140/140 141/141/141
f 142/142/142 141/141/141 140/140/140
f 145/145/145 144/144/144 143/143/143
f 143/143/143 144/144/144 146/146/146
f 147/147/147 144/144/144 145/145/145
f 146/146/146 144/144/144 148/148/148
f 148/148/148 144/144/144 147/147/147
